<svg width="187" height="184" viewBox="0 0 187 184" fill="none" xmlns="http://www.w3.org/2000/svg">
<g filter="url(#filter0_d_2_3)">
<g filter="url(#filter1_d_2_3)">
<path d="M4.02313 79.4347L156.023 75.6324C152.523 110.804 131.523 152.154 78.5231 152.629C24.0315 153.118 6.1898 102.565 4.02313 79.4347Z" fill="#FF5566"/>
</g>
<path d="M156.023 77.7705L5.52313 77.7705C8.1898 50.7705 27.1231 -2.42945 81.5231 0.770537C135.923 3.97053 153.856 53.4372 156.023 77.7705Z" fill="#00B9FB"/>
<path d="M79.8083 1.99116C121.111 1.99135 154.592 35.4739 154.592 76.7763C154.592 118.079 121.111 151.56 79.8083 151.56C38.5059 151.56 5.02332 118.079 5.02313 76.7763C5.02313 35.4738 38.5058 1.99116 79.8083 1.99116Z" stroke="#202020" stroke-width="4"/>
<path d="M82.252 4.58398L152.412 74.5361L153.812 75.9316L152.433 77.3477L82.2734 149.396L80.8574 150.85L79.4238 149.412L7.58398 77.3652L6.1543 75.9316L7.60449 74.5195L79.4453 4.56738L80.8564 3.19238L82.252 4.58398Z" fill="#EE66BB" stroke="#202020" stroke-width="4"/>
<path d="M144.109 76.4084H94.7548" stroke="#202020" stroke-width="3.5" stroke-linecap="round"/>
<path d="M90.097 86.8774L112.032 108.813" stroke="#202020" stroke-width="3.5" stroke-linecap="round"/>
<path d="M79.7992 68.4378C84.2011 68.4379 87.7699 72.0066 87.7699 76.4085C87.7698 80.8104 84.201 84.3791 79.7992 84.3792C75.3973 84.3792 71.8286 80.8105 71.8285 76.4085C71.8285 72.0065 75.3972 68.4378 79.7992 68.4378Z" fill="#36FF9A" stroke="#202020" stroke-width="4"/>
</g>
<defs>
<filter id="filter0_d_2_3" x="3.02313" y="-0.00884247" width="183.6" height="183.708" filterUnits="userSpaceOnUse" color-interpolation-filters="sRGB">
<feFlood flood-opacity="0" result="BackgroundImageFix"/>
<feColorMatrix in="SourceAlpha" type="matrix" values="0 0 0 0 0 0 0 0 0 0 0 0 0 0 0 0 0 0 127 0" result="hardAlpha"/>
<feOffset dx="30" dy="30"/>
<feComposite in2="hardAlpha" operator="out"/>
<feColorMatrix type="matrix" values="0 0 0 0 0 0 0 0 0 0 0 0 0 0 0 0 0 0 0.25 0"/>
<feBlend mode="normal" in2="BackgroundImageFix" result="effect1_dropShadow_2_3"/>
<feBlend mode="normal" in="SourceGraphic" in2="effect1_dropShadow_2_3" result="shape"/>
</filter>
<filter id="filter1_d_2_3" x="0.0231323" y="75.6324" width="160" height="85" filterUnits="userSpaceOnUse" color-interpolation-filters="sRGB">
<feFlood flood-opacity="0" result="BackgroundImageFix"/>
<feColorMatrix in="SourceAlpha" type="matrix" values="0 0 0 0 0 0 0 0 0 0 0 0 0 0 0 0 0 0 127 0" result="hardAlpha"/>
<feOffset dy="4"/>
<feGaussianBlur stdDeviation="2"/>
<feComposite in2="hardAlpha" operator="out"/>
<feColorMatrix type="matrix" values="0 0 0 0 0 0 0 0 0 0 0 0 0 0 0 0 0 0 0.25 0"/>
<feBlend mode="normal" in2="BackgroundImageFix" result="effect1_dropShadow_2_3"/>
<feBlend mode="normal" in="SourceGraphic" in2="effect1_dropShadow_2_3" result="shape"/>
</filter>
</defs>
</svg>
