<svg width="184" height="185" viewBox="0 0 184 185" fill="none" xmlns="http://www.w3.org/2000/svg">
<g filter="url(#filter0_d_2_98)">
<path d="M76 153C117.974 153 152 118.974 152 77C152 35.0264 117.974 1 76 1C34.0264 1 3.05176e-05 35.0264 3.05176e-05 77C3.05176e-05 118.974 34.0264 153 76 153Z" fill="#9556EB"/>
<path d="M2.90449 76.7215L76.6167 75.5982V2.77234L2.90449 76.7215Z" fill="#00B9FB"/>
<path d="M76.6167 75.5982L2.90449 76.7215C-4.03136 165.401 146.31 187.113 152.415 75.5982H76.6167Z" fill="#EE66BB"/>
<path d="M2.90449 76.7215L76.6167 75.5982M2.90449 76.7215L76.6167 2.77234M2.90449 76.7215C-4.03136 165.401 146.31 187.113 152.415 75.5982M76.6167 75.5982V2.77234M76.6167 75.5982H152.415M76.6167 2.77234L152.415 75.5982" stroke="#202020"/>
<path d="M1.50613 76.8581C-3.15539 76.9397 11.712 1.43925 75.5541 3.16965C75.5541 3.16965 6.16766 76.7764 1.50613 76.8581Z" fill="#36FF9A"/>
<path d="M1.50613 76.8581C-3.15539 76.9397 11.712 1.43925 75.5541 3.16965C75.5541 3.16965 6.16766 76.7764 1.50613 76.8581Z" stroke="#202020"/>
<path d="M152.21 76.2546C156.871 76.3362 142.004 0.835766 78.1619 2.56616C78.1619 2.56616 147.548 76.1729 152.21 76.2546Z" fill="#EE66BB"/>
<circle cx="77" cy="77.3958" r="75" stroke="#202020" stroke-width="4"/>
<line x1="75.0187" y1="4.22412" x2="2.82836" y2="77.377" stroke="#202020" stroke-width="4" stroke-linecap="round"/>
<line x1="76.8284" y1="2.39575" x2="152" y2="77.5673" stroke="#202020" stroke-width="4" stroke-linecap="round"/>
<rect x="76.0001" y="62.3343" width="16.8019" height="15.0615" fill="#36FF9A"/>
<line x1="3.00003" y1="77.3958" x2="151" y2="77.3958" stroke="#202020" stroke-width="4" stroke-linecap="round"/>
<line x1="77" y1="3.39575" x2="77" y2="75.3958" stroke="#202020" stroke-width="4" stroke-linecap="round"/>
<path d="M77 62.3958H92" stroke="#202020" stroke-width="4" stroke-linecap="round"/>
<line x1="92" y1="62.3958" x2="92" y2="76.3958" stroke="#202020" stroke-width="4" stroke-linecap="round"/>
</g>
<defs>
<filter id="filter0_d_2_98" x="0" y="0.395752" width="184" height="184" filterUnits="userSpaceOnUse" color-interpolation-filters="sRGB">
<feFlood flood-opacity="0" result="BackgroundImageFix"/>
<feColorMatrix in="SourceAlpha" type="matrix" values="0 0 0 0 0 0 0 0 0 0 0 0 0 0 0 0 0 0 127 0" result="hardAlpha"/>
<feOffset dx="30" dy="30"/>
<feComposite in2="hardAlpha" operator="out"/>
<feColorMatrix type="matrix" values="0 0 0 0 0 0 0 0 0 0 0 0 0 0 0 0 0 0 0.25 0"/>
<feBlend mode="normal" in2="BackgroundImageFix" result="effect1_dropShadow_2_98"/>
<feBlend mode="normal" in="SourceGraphic" in2="effect1_dropShadow_2_98" result="shape"/>
</filter>
</defs>
</svg>
