<svg width="188" height="183" viewBox="0 0 188 183" fill="none" xmlns="http://www.w3.org/2000/svg">
<g filter="url(#filter0_d_2_66)">
<path d="M155.013 134.949C155.354 135.55 155.581 136.244 155.355 136.897C152.655 144.7 119.516 150.866 79.033 150.866C38.55 150.866 5.41147 144.7 2.71077 136.897C2.4847 136.244 2.71215 135.55 3.05293 134.949L75.5529 7.00751C77.0852 4.30358 80.9809 4.30358 82.5131 7.00751L155.013 134.949Z" fill="#9556EB"/>
<ellipse cx="79.2264" cy="135.728" rx="76.3066" ry="15.1383" fill="#FEDF46"/>
<path d="M79.033 150.866C119.516 150.866 152.655 144.7 155.355 136.897C155.581 136.244 155.354 135.55 155.013 134.949L82.5131 7.00751C80.9809 4.30358 77.0852 4.30358 75.5529 7.00751L3.05293 134.949C2.71215 135.55 2.4847 136.244 2.71077 136.897C5.41147 144.7 38.55 150.866 79.033 150.866Z" stroke="#202020" stroke-width="4" stroke-linejoin="round"/>
<path d="M155.533 135.866C150.533 126.866 121.561 120.866 79.033 120.866C36.5053 120.866 9.03302 126.366 2.53302 135.866" stroke="#202020" stroke-width="4" stroke-linejoin="round" stroke-dasharray="25 10"/>
</g>
<defs>
<filter id="filter0_d_2_66" x="0.618866" y="0.86618" width="186.828" height="182" filterUnits="userSpaceOnUse" color-interpolation-filters="sRGB">
<feFlood flood-opacity="0" result="BackgroundImageFix"/>
<feColorMatrix in="SourceAlpha" type="matrix" values="0 0 0 0 0 0 0 0 0 0 0 0 0 0 0 0 0 0 127 0" result="hardAlpha"/>
<feOffset dx="30" dy="30"/>
<feComposite in2="hardAlpha" operator="out"/>
<feColorMatrix type="matrix" values="0 0 0 0 0 0 0 0 0 0 0 0 0 0 0 0 0 0 0.25 0"/>
<feBlend mode="normal" in2="BackgroundImageFix" result="effect1_dropShadow_2_66"/>
<feBlend mode="normal" in="SourceGraphic" in2="effect1_dropShadow_2_66" result="shape"/>
</filter>
</defs>
</svg>
