<svg width="200" height="200" viewBox="0 0 200 200" fill="none" xmlns="http://www.w3.org/2000/svg">
<g clip-path="url(#clip0_1_9)">
<path d="M109.23 125.86C88.17 125.86 78.52 145.53 76.33 155.36C88.76 158.36 119.76 163.06 144.33 155.86C140.82 146.03 130.29 125.86 109.23 125.86Z" fill="#C6CCCC"/>
<path d="M144.33 156.86C143.71 156.86 143.14 156.48 142.92 155.86C133.48 129.41 114.75 127.36 109.24 127.36C89.37 127.36 79.99 145.89 77.8 155.69C77.62 156.5 76.82 157.01 76.01 156.83C75.2 156.65 74.69 155.85 74.87 155.04C77.24 144.43 87.46 124.37 109.24 124.37C128.13 124.37 140.49 140.12 145.75 154.87C146.03 155.65 145.62 156.51 144.84 156.79C144.67 156.85 144.5 156.88 144.34 156.88L144.33 156.86Z" fill="#292B34"/>
<path d="M170.51 77.79C173.93 93.88 168.81 107.07 158.08 117.31C147.28 127.62 130.76 134.97 111.47 139.07C92.18 143.17 74.09 143.18 60.04 138.15C46.07 133.16 36.03 123.19 32.61 107.1C29.19 91.01 34.31 77.82 45.04 67.58C55.84 57.27 72.36 49.92 91.65 45.82C110.94 41.72 129.03 41.71 143.08 46.74C157.05 51.73 167.09 61.7 170.51 77.79Z" fill="white"/>
<path d="M85.11 143.55C75.58 143.55 66.95 142.22 59.53 139.57C44.05 134.04 34.5 123.22 31.14 107.42C27.78 91.62 32.11 77.85 44 66.5C54.65 56.33 71.02 48.68 91.34 44.36C111.66 40.04 129.73 40.38 143.59 45.33C159.07 50.86 168.62 61.68 171.98 77.48C175.34 93.28 171.01 107.05 159.12 118.4C148.47 128.57 132.1 136.22 111.78 140.54C102.34 142.55 93.38 143.55 85.11 143.55ZM118.02 44.34C109.96 44.34 101.21 45.32 91.96 47.29C72.19 51.49 56.32 58.88 46.07 68.67C34.98 79.25 30.95 92.08 34.07 106.8C37.2 121.51 46.1 131.59 60.54 136.75C73.88 141.52 91.38 141.82 111.16 137.61C130.93 133.41 146.8 126.02 157.05 116.23C168.14 105.65 172.17 92.82 169.05 78.11C165.92 63.4 157.02 53.32 142.58 48.16C135.48 45.62 127.19 44.35 118.02 44.35V44.34Z" fill="#292B34"/>
<path fill-rule="evenodd" clip-rule="evenodd" d="M103.15 85.51C103.15 85.51 105.89 60.9 126.63 56.49C146.62 52.24 159.21 58.98 166.08 69.1L170.73 78.81C169.66 75.41 168.12 72.11 166.08 69.1L158.95 54.22C143.9 40.81 118.66 38.55 91.33 44.35C56.5 51.76 30.1 69.77 30.05 97.38L35.14 114.28C30.05 90.32 40.83 73.71 66.26 68.3C87.29 63.83 97.27 86.75 97.27 86.75L103.14 85.5L103.15 85.51Z" fill="#292B34"/>
<path d="M128.93 89.71C136.347 89.71 142.36 83.6972 142.36 76.28C142.36 68.8628 136.347 62.85 128.93 62.85C121.513 62.85 115.5 68.8628 115.5 76.28C115.5 83.6972 121.513 89.71 128.93 89.71Z" fill="white"/>
<path d="M128.92 91.2C122.03 91.2 115.81 86.38 114.32 79.38C113.49 75.48 114.23 71.49 116.4 68.15C118.57 64.81 121.92 62.51 125.82 61.68C133.87 59.97 141.81 65.13 143.52 73.18C145.23 81.23 140.07 89.17 132.02 90.88C130.98 91.1 129.94 91.21 128.91 91.21L128.92 91.2ZM128.92 64.35C128.1 64.35 127.27 64.43 126.44 64.61C123.32 65.27 120.65 67.11 118.92 69.78C117.19 72.45 116.59 75.64 117.26 78.75C118.63 85.18 124.97 89.3 131.41 87.94C137.84 86.57 141.96 80.23 140.6 73.8C139.41 68.2 134.45 64.35 128.94 64.35H128.92Z" fill="#292B34"/>
<path d="M133.2 72C133.83 74.97 131.94 77.89 128.96 78.52C125.99 79.15 123.07 77.25 122.44 74.28C121.81 71.31 124.43 71.78 127.4 71.15C130.37 70.52 132.57 69.03 133.2 72Z" fill="#292B34"/>
<path d="M116.36 76.37L114.59 73.95C125.84 65.74 140.54 68.17 141.16 68.28L140.65 71.24C140.51 71.22 126.57 68.93 116.36 76.38V76.37Z" fill="#292B34"/>
<path d="M70.24 102.18C77.6572 102.18 83.67 96.1672 83.67 88.75C83.67 81.3328 77.6572 75.32 70.24 75.32C62.8228 75.32 56.81 81.3328 56.81 88.75C56.81 96.1672 62.8228 102.18 70.24 102.18Z" fill="white"/>
<path d="M70.23 103.68C63.33 103.68 57.12 98.86 55.63 91.86C53.92 83.81 59.08 75.87 67.13 74.16C75.18 72.45 83.12 77.61 84.83 85.66C86.54 93.71 81.38 101.65 73.33 103.36C72.29 103.58 71.25 103.69 70.22 103.69L70.23 103.68ZM67.75 77.09C64.63 77.75 61.96 79.59 60.23 82.26C58.49 84.93 57.9 88.12 58.57 91.23C59.94 97.66 66.28 101.78 72.72 100.42C79.15 99.05 83.27 92.71 81.91 86.27C81.25 83.15 79.41 80.48 76.74 78.75C74.07 77.01 70.88 76.42 67.77 77.09H67.75Z" fill="#292B34"/>
<path d="M75.49 84.27C76.12 87.24 74.22 90.16 71.25 90.79C68.28 91.42 65.36 89.52 64.73 86.55C64.1 83.58 66.72 84.05 69.69 83.42C72.66 82.79 74.86 81.3 75.49 84.27Z" fill="#292B34"/>
<path d="M57.62 88.89L55.95 86.4C56.47 86.05 68.91 77.85 82.53 80.77L81.9 83.7C69.54 81.05 57.74 88.81 57.62 88.89Z" fill="#292B34"/>
<path d="M104.56 105.61C111.95 104.04 113.25 99.45 113.58 96.5C113.64 95.95 113.21 95.46 112.66 95.43L102.56 94.86C102.38 94.85 102.2 94.89 102.05 94.97L93.16 99.55C92.63 99.83 92.45 100.51 92.78 101.01C94.44 103.53 97.24 107.17 104.57 105.61H104.56Z" fill="#FDC507"/>
<path d="M101.29 107.48C95.25 107.48 92.71 103.63 91.52 101.83C91.13 101.24 91.01 100.5 91.19 99.82C91.37 99.13 91.84 98.55 92.47 98.22L101.36 93.64C101.75 93.44 102.2 93.34 102.64 93.37L112.74 93.94C113.42 93.98 114.07 94.3 114.51 94.82C114.94 95.33 115.15 96.01 115.07 96.67C114.43 102.27 111 105.77 104.87 107.07C103.56 107.35 102.36 107.47 101.28 107.47L101.29 107.48ZM94.33 100.64C96.03 103.08 98.45 105.38 104.25 104.15C110.2 102.88 111.6 99.54 112.02 96.91L102.62 96.37L94.34 100.64H94.33Z" fill="#292B34"/>
<path d="M100.63 87.02C95.22 88.17 92.38 94.37 91.47 98.51C91.3 99.27 92.09 99.83 92.79 99.49L102.07 94.96C102.22 94.89 102.38 94.85 102.54 94.86L112.77 95.22C113.57 95.25 114.06 94.38 113.57 93.75C110.97 90.37 106 85.88 100.62 87.03L100.63 87.02Z" fill="#FDC507"/>
<path d="M92.34 101.09C91.8 101.09 91.28 100.91 90.84 100.57C90.12 100 89.8 99.09 90 98.18C91.17 92.88 94.5 86.78 100.31 85.55C107.38 84.05 113.16 90.74 114.76 92.83C115.34 93.58 115.43 94.56 115 95.39C114.56 96.24 113.67 96.74 112.71 96.71L102.6 96.35L93.43 100.83C93.08 101 92.7 101.09 92.33 101.09H92.34ZM102.32 88.34C101.86 88.34 101.39 88.39 100.93 88.48C96.93 89.33 94.38 93.67 93.24 97.58L101.4 93.59C101.77 93.41 102.17 93.32 102.59 93.34L111.58 93.66C109.15 90.84 105.74 88.33 102.32 88.33V88.34Z" fill="#292B34"/>
<path d="M132.71 114.45C123.54 115.57 120.16 141.91 124.3 145.76C131.04 152.04 143.26 151 147.71 142.94C150.53 137.84 141.87 113.33 132.71 114.45Z" fill="#C6CCCC"/>
<path d="M135.02 151.33C130.61 151.33 126.37 149.74 123.28 146.86C120.02 143.82 120.61 132.26 123.31 123.95C124.83 119.26 127.67 113.55 132.53 112.96C135.98 112.54 139.51 114.87 142.76 119.68C147.59 126.84 151.43 139.32 149.02 143.67C146.83 147.62 142.78 150.33 137.9 151.1C136.94 151.25 135.97 151.33 135.01 151.33H135.02ZM132.89 115.94C130.36 116.25 127.91 119.51 126.16 124.88C123.38 133.44 123.66 143.12 125.32 144.67C128.42 147.56 132.94 148.86 137.43 148.14C141.39 147.51 144.66 145.35 146.4 142.22C147.75 139.79 145.28 128.79 140.27 121.36C137.73 117.59 135.11 115.66 132.89 115.94Z" fill="#292B34"/>
<path d="M36.07 50.29C34.83 50.95 33.65 50.51 32.64 48.95L26.66 39.68C25.56 38.01 25.85 36.59 27.46 35.74L28.79 35.03C30.4 34.17 31.74 34.72 32.54 36.56L36.88 46.7C37.61 48.41 37.31 49.63 36.07 50.29ZM40.18 58.02C38.4 58.97 36.6 58.66 35.57 56.72C34.55 54.81 35.3 53.15 37.08 52.2C38.72 51.33 40.68 51.55 41.7 53.46C42.73 55.4 41.82 57.15 40.18 58.03V58.02Z" fill="#292B34"/>
<path d="M42.05 27.58C47.36 24.75 51.99 25.81 54.2 29.97C56.07 33.48 55.44 37.49 50.83 39.86C51.26 41.29 51.16 42.25 49.78 42.99C48.56 43.64 47.44 43.36 46.62 42.02L46.23 41.36C45.4 39.94 45.86 38.95 47.38 37.94C49.23 36.72 49.98 35.33 49.13 33.73C48.29 32.16 46.62 31.87 44.64 32.92C43.57 33.49 43.06 34.31 42.7 35.41C42.24 36.8 41.81 37.42 40.42 38.01L39.84 38.28C38.15 38.98 36.94 38.2 36.77 36.2C36.48 32.72 38.32 29.57 42.05 27.58ZM50.73 44.78C52.37 43.91 54.35 44.16 55.37 46.07C56.39 47.98 55.47 49.73 53.83 50.6C52.02 51.56 50.23 51.25 49.21 49.34C48.19 47.43 48.93 45.74 50.73 44.77V44.78Z" fill="#292B34"/>
</g>
<defs>
<clipPath id="clip0_1_9">
<rect width="147.08" height="133.66" fill="white" transform="translate(26 26)"/>
</clipPath>
</defs>
</svg>
