<svg width="200" height="200" viewBox="0 0 200 200" fill="none" xmlns="http://www.w3.org/2000/svg">
<g clip-path="url(#clip0_1_11)">
<path d="M106.9 126.37C85.84 126.37 76.19 146.04 74 155.87C86.43 158.87 117.43 163.07 142 155.87C138.49 146.04 127.96 126.37 106.9 126.37Z" fill="#C6CCCC"/>
<path d="M142 157.37C141.38 157.37 140.81 156.99 140.59 156.37C131.15 129.92 112.42 127.87 106.91 127.87C87.04 127.87 77.66 146.4 75.47 156.2C75.29 157.01 74.49 157.52 73.68 157.34C72.87 157.16 72.36 156.36 72.54 155.55C74.91 144.94 85.13 124.88 106.91 124.88C125.8 124.88 138.16 140.63 143.42 155.38C143.7 156.16 143.29 157.02 142.51 157.3C142.34 157.36 142.17 157.39 142.01 157.39L142 157.37Z" fill="#292B34"/>
<path d="M174.72 76.28C177.01 92.57 170.99 105.37 159.57 114.84C148.08 124.37 131.08 130.55 111.55 133.3C92.0199 136.04 73.9799 134.79 60.2999 128.79C46.7099 122.83 37.3899 112.2 35.0999 95.9C32.8099 79.61 38.8299 66.81 50.2599 57.34C61.7499 47.81 78.7499 41.63 98.2799 38.88C117.81 36.13 135.85 37.39 149.53 43.38C163.12 49.34 172.44 59.97 174.73 76.27L174.72 76.28Z" fill="white"/>
<path d="M92.63 136.18C79.99 136.18 68.82 134.16 59.7 130.16C44.64 123.56 35.87 112.1 33.62 96.11C31.37 80.11 36.65 66.68 49.3 56.19C60.64 46.79 77.5 40.29 98.07 37.4C118.64 34.51 136.64 36.11 150.13 42.02C165.19 48.62 173.96 60.08 176.21 76.07C178.46 92.07 173.18 105.5 160.53 115.99C149.19 125.39 132.33 131.89 111.76 134.78C105.09 135.72 98.69 136.18 92.63 136.18ZM117.22 39C111.3 39 105.03 39.46 98.49 40.38C78.47 43.19 62.13 49.46 51.22 58.5C39.42 68.28 34.5 80.8 36.59 95.69C38.68 110.59 46.86 121.26 60.9 127.41C73.88 133.1 91.32 134.62 111.33 131.8C131.35 128.99 147.69 122.72 158.6 113.68C170.4 103.89 175.32 91.38 173.23 76.48C171.14 61.58 162.96 50.91 148.92 44.76C140.18 40.93 129.42 38.99 117.21 38.99L117.22 39Z" fill="#292B34"/>
<path fill-rule="evenodd" clip-rule="evenodd" d="M100.59 83.94C100.59 83.94 107.04 59.58 128.04 56.63C154.28 52.94 167.71 67.72 170.48 81.97C173.25 96.22 168.16 105.01 168.16 105.01L173.91 98.09C176.47 91.58 177.35 84.24 176.2 76.07C172.87 52.39 155.1 40.17 131.17 36.91H101.92C100.64 37.06 99.36 37.22 98.06 37.4C61.41 42.55 33.03 59.78 33.12 89.34C36.25 75.63 46.56 66.79 64.99 64.2C86.28 61.21 94.64 84.77 94.64 84.77L100.58 83.94H100.59Z" fill="#292B34"/>
<path d="M158.17 69.56C158.47 71.72 156.6 73.54 155.42 75.36C155.06 75.91 154.86 76.61 154.99 77.5C156.16 85.84 158.78 103.72 136.89 106.79C119.4 109.25 109.78 101.39 106.98 91.62C105.82 87.55 103.78 83.23 99.55 83.83C95.32 84.42 94.59 89.1 94.6 93.36C94.6 103.53 87.52 113.73 70.03 116.19C48.18 119.26 45.73 101.36 44.56 93.02C44.44 92.13 44.05 91.52 43.56 91.09C41.92 89.66 39.62 88.43 39.31 86.27L39.18 85.36C38.9 83.37 40.14 81.48 42.08 80.99C47.64 79.59 53.28 78.51 58.96 77.77C71.32 76.03 76.24 75.34 86.21 74.95C91.82 74.72 97.6 74 98.14 73.93C98.17 73.93 98.19 73.93 98.22 73.92C98.76 73.84 104.49 72.94 109.97 71.61C119.66 69.24 124.59 68.55 136.94 66.81C142.61 65.96 148.31 65.45 154.03 65.26C156.04 65.19 157.75 66.67 158.03 68.66L158.16 69.56H158.17Z" fill="#323D51"/>
<path d="M120.474 82.2846C121.612 79.4683 120.874 76.5143 118.826 75.6867C116.777 74.8591 114.195 76.4714 113.057 79.2878C111.919 82.1042 112.657 85.0582 114.705 85.8857C116.753 86.7133 119.336 85.101 120.474 82.2846Z" fill="#75889F"/>
<path d="M58.0877 91.0477C59.2256 88.2313 58.4875 85.2773 56.4393 84.4497C54.391 83.6222 51.8081 85.2344 50.6702 88.0508C49.5323 90.8672 50.2703 93.8212 52.3186 94.6488C54.3669 95.4763 56.9498 93.8641 58.0877 91.0477Z" fill="#75889F"/>
<path d="M102.56 104.65C109.68 102.06 110.31 97.31 110.23 94.35C110.22 93.8 109.74 93.39 109.2 93.44C107.14 93.61 102.32 94.1 99.16 95.25C96.06 96.38 92.12 99.03 90.39 100.25C89.91 100.59 89.84 101.27 90.23 101.71C92.22 103.97 95.5 107.22 102.57 104.65H102.56Z" fill="#FDC507"/>
<path d="M97.78 107.08C92.96 107.08 90.38 104.15 89.1 102.7C88.63 102.17 88.41 101.46 88.49 100.76C88.57 100.06 88.95 99.43 89.52 99.02C91.56 97.58 95.45 95 98.64 93.83C101.87 92.66 106.56 92.14 109.07 91.93C109.74 91.88 110.41 92.1 110.92 92.55C111.42 92.99 111.71 93.63 111.73 94.3C111.89 99.95 108.98 103.9 103.08 106.05C101.07 106.78 99.32 107.08 97.79 107.08H97.78ZM91.73 101.13C93.76 103.32 96.48 105.25 102.05 103.23C107.77 101.15 108.69 97.64 108.73 94.97C106.57 95.17 102.4 95.65 99.67 96.65C96.97 97.63 93.5 99.91 91.73 101.13Z" fill="#292B34"/>
<path d="M95.7301 85.85C90.2201 87.85 88.3701 95.07 88.2201 99.23C88.2001 99.81 88.7001 100.24 89.2701 100.16C91.9801 99.8 99.3001 98.65 103.76 96.23C105.88 95.08 108.49 92.87 109.72 91.78C110.12 91.43 110.16 90.83 109.79 90.44C106.98 87.51 101.28 83.83 95.7301 85.85Z" fill="#FDC507"/>
<path d="M89.14 101.67C88.54 101.67 87.95 101.45 87.5 101.04C86.98 100.56 86.69 99.88 86.72 99.17C86.88 94.79 88.85 86.76 95.22 84.44C101.18 82.27 107.38 85.75 110.88 89.4C111.34 89.88 111.58 90.51 111.55 91.17C111.52 91.83 111.22 92.46 110.72 92.9C109.35 94.12 106.71 96.34 104.48 97.55C99.83 100.07 92.43 101.26 89.47 101.65C89.36 101.66 89.25 101.67 89.14 101.67ZM96.24 87.26C91.68 88.92 90.05 95.03 89.75 98.58C92.53 98.18 99.09 97.05 103.04 94.91C104.82 93.94 107.05 92.1 108.27 91.05C105.78 88.67 100.87 85.57 96.23 87.26H96.24Z" fill="#292B34"/>
<path d="M108.67 135.4C108.67 129.3 124.94 129.81 130.02 130.83C128.75 126.25 131.69 115.58 137.64 115.58C144.5 115.58 141.45 123.97 147.55 134.64C153.07 144.3 148.46 154.88 141.45 156.75C130.01 159.8 122.39 156.75 121.62 146.07C121.29 141.44 108.66 143.02 108.66 135.39L108.67 135.4Z" fill="#C6CCCC"/>
<path d="M133.83 159.38C130.42 159.38 127.58 158.58 125.35 156.99C122.24 154.78 120.49 151.14 120.14 146.18C120.07 145.16 117.89 144.42 115.79 143.71C112.15 142.47 107.17 140.78 107.17 135.4C107.17 133.94 107.83 132.63 109.06 131.61C113.02 128.36 122.87 128.39 128.24 129.03C128.06 125.49 129.2 120.66 131.68 117.41C133.34 115.23 135.4 114.07 137.64 114.07C142.81 114.07 143.71 117.97 144.75 122.48C145.48 125.65 146.39 129.58 148.85 133.89C151.85 139.14 152.33 145.13 150.16 150.32C148.47 154.37 145.44 157.24 141.83 158.2C138.88 158.99 136.21 159.38 133.82 159.38H133.83ZM122.29 131.69C117.78 131.69 112.98 132.29 110.97 133.94C110.26 134.52 110.17 135.06 110.17 135.41C110.17 138.42 112.78 139.53 116.76 140.88C119.79 141.91 122.92 142.97 123.13 145.98C123.42 150 124.75 152.89 127.09 154.56C130.08 156.69 134.92 156.95 141.07 155.31C143.73 154.6 146.09 152.31 147.4 149.17C149.2 144.85 148.79 139.82 146.25 135.39C143.57 130.7 142.61 126.53 141.83 123.17C140.69 118.23 140.16 117.08 137.64 117.08C136.36 117.08 135.16 117.8 134.07 119.23C131.71 122.33 130.73 127.8 131.46 130.43C131.6 130.93 131.46 131.47 131.11 131.85C130.76 132.23 130.23 132.4 129.72 132.3C127.88 131.93 125.14 131.69 122.28 131.69H122.29Z" fill="#292B34"/>
<path d="M132.2 136.15C131.82 136.15 131.43 136 131.14 135.71C129.8 134.37 128.84 132.48 128.2 129.93C128 129.13 128.49 128.31 129.29 128.11C130.1 127.91 130.91 128.4 131.11 129.2C131.61 131.21 132.32 132.65 133.26 133.59C133.85 134.18 133.85 135.13 133.26 135.71C132.97 136 132.58 136.15 132.2 136.15Z" fill="#292B34"/>
<path d="M164.46 97.52C164.3 96.85 163.7 96.37 163 96.37C162.3 96.37 161.7 96.85 161.54 97.52L160.51 101.82C160 103.96 158.44 105.69 156.38 106.43L153.5 107.46C152.9 107.67 152.51 108.24 152.51 108.87C152.51 109.5 152.91 110.07 153.5 110.28L156.38 111.31C158.45 112.05 160 113.78 160.51 115.92L161.54 120.22C161.7 120.9 162.3 121.37 163 121.37C163.7 121.37 164.3 120.89 164.46 120.22L165.49 115.92C166 113.78 167.56 112.05 169.62 111.31L172.5 110.28C173.1 110.07 173.49 109.5 173.49 108.87C173.49 108.24 173.09 107.67 172.5 107.46L169.62 106.43C167.55 105.69 166 103.96 165.49 101.82L164.46 97.52Z" fill="#FDF52F"/>
<path d="M163 122.87C161.61 122.87 160.41 121.92 160.08 120.57L159.05 116.27C158.66 114.62 157.47 113.3 155.87 112.73L152.99 111.7C151.8 111.28 151 110.14 151 108.88C151 107.62 151.8 106.48 152.99 106.05L155.87 105.02C157.47 104.45 158.66 103.12 159.05 101.48L160.08 97.18C160.41 95.82 161.61 94.88 163 94.88C164.39 94.88 165.59 95.83 165.92 97.18L166.95 101.48C167.34 103.13 168.53 104.45 170.13 105.02L173.01 106.05C174.2 106.47 175 107.61 175 108.87C175 110.13 174.2 111.27 173.01 111.7L170.13 112.73C168.53 113.3 167.34 114.63 166.95 116.27L165.92 120.57C165.59 121.93 164.39 122.87 163 122.87ZM163 97.87L161.97 102.17C161.34 104.81 159.44 106.93 156.88 107.84L154 108.87L156.88 109.9C159.43 110.81 161.34 112.93 161.97 115.57L163 119.87L164.03 115.57C164.66 112.93 166.56 110.81 169.12 109.9L172 108.87L169.12 107.84C166.57 106.93 164.66 104.81 164.03 102.17L163 97.87Z" fill="#292B34"/>
<path d="M34.46 70.51C34.29 69.84 33.69 69.37 33 69.37C32.31 69.37 31.71 69.84 31.55 70.51L29.89 77.12C29.35 79.26 27.77 80.98 25.68 81.69L20.51 83.45C19.9 83.66 19.49 84.23 19.49 84.87C19.49 85.51 19.9 86.08 20.51 86.29L25.68 88.05C27.77 88.76 29.35 90.48 29.89 92.62L31.55 99.23C31.72 99.9 32.32 100.37 33 100.37C33.68 100.37 34.29 99.9 34.46 99.23L36.12 92.62C36.66 90.48 38.24 88.76 40.33 88.05L45.5 86.29C46.11 86.08 46.52 85.51 46.52 84.87C46.52 84.23 46.11 83.66 45.5 83.45L40.33 81.69C38.24 80.98 36.66 79.26 36.12 77.12L34.46 70.51Z" fill="#FDF52F"/>
<path d="M33 101.87C31.62 101.87 30.43 100.94 30.09 99.6L28.43 92.99C28.02 91.34 26.81 90.02 25.19 89.47L20.02 87.71C18.81 87.3 17.99 86.16 17.99 84.87C17.99 83.58 18.81 82.45 20.02 82.03L25.19 80.27C26.8 79.72 28.01 78.41 28.43 76.75L30.09 70.14C30.43 68.8 31.62 67.87 33 67.87C34.38 67.87 35.57 68.8 35.91 70.14L37.57 76.75C37.98 78.4 39.19 79.72 40.81 80.27L45.98 82.03C47.19 82.44 48.01 83.58 48.01 84.87C48.01 86.16 47.19 87.29 45.98 87.71L40.81 89.47C39.2 90.02 37.99 91.33 37.57 92.99L35.91 99.6C35.57 100.94 34.38 101.87 33 101.87ZM33 70.87L31.34 77.48C30.68 80.12 28.74 82.23 26.16 83.11L20.99 84.87L26.16 86.63C28.74 87.51 30.67 89.61 31.34 92.26L33 98.87L34.66 92.26C35.32 89.62 37.26 87.51 39.84 86.63L45.01 84.87L39.84 83.11C37.26 82.23 35.33 80.13 34.66 77.48L33 70.87Z" fill="#292B34"/>
<path d="M44.2099 139.42C44.2099 133.87 59.0199 134.33 63.6399 135.25C62.4799 131.09 65.16 121.37 70.58 121.37C76.83 121.37 74.0499 129 79.5999 138.72C84.6299 147.52 80.43 157.15 74.0499 158.85C63.6399 161.63 56.7 158.85 56 149.13C55.7 144.92 44.2 146.35 44.2 139.41L44.2099 139.42Z" fill="#C6CCCC"/>
<path d="M67.11 161.38C63.98 161.38 61.37 160.65 59.31 159.18C56.45 157.14 54.83 153.8 54.51 149.24C54.45 148.4 52.43 147.72 50.65 147.11C47.3 145.97 42.71 144.41 42.71 139.42C42.71 138.05 43.32 136.82 44.48 135.87C48.07 132.92 56.94 132.91 61.89 133.48C61.77 130.25 62.82 125.91 65.05 122.97C66.59 120.95 68.5 119.88 70.58 119.88C75.39 119.88 76.26 123.65 77.18 127.64C77.84 130.51 78.67 134.09 80.9 137.99C83.65 142.81 84.09 148.3 82.1 153.06C80.55 156.78 77.75 159.43 74.43 160.31C71.74 161.03 69.29 161.39 67.1 161.39L67.11 161.38ZM56.69 136.19C52.58 136.19 48.17 136.72 46.38 138.19C45.78 138.68 45.7 139.11 45.7 139.42C45.7 142.07 48.04 143.06 51.6 144.27C54.4 145.22 57.29 146.2 57.49 149.03C57.75 152.65 58.94 155.24 61.04 156.74C63.73 158.66 68.09 158.89 73.65 157.41C76.03 156.78 78.15 154.72 79.32 151.9C80.95 148 80.57 143.47 78.28 139.47C75.83 135.19 74.95 131.38 74.24 128.31C73.2 123.83 72.77 122.87 70.56 122.87C69.44 122.87 68.38 123.51 67.42 124.78C65.3 127.57 64.41 132.49 65.07 134.85C65.21 135.35 65.07 135.89 64.72 136.27C64.37 136.65 63.84 136.82 63.33 136.72C61.71 136.4 59.25 136.19 56.67 136.19H56.69Z" fill="#292B34"/>
<path d="M70.4999 160.37C70.3499 160.37 70.1999 160.35 70.0499 160.3C69.2599 160.05 68.8199 159.21 69.0699 158.42C70.0099 155.43 69.6299 153 67.9199 151.19C65.5599 148.68 60.8099 147.71 56.3599 148.82C55.5499 149.02 54.7399 148.53 54.5399 147.73C54.3399 146.93 54.8299 146.11 55.6299 145.91C61.1699 144.53 66.9899 145.82 70.0999 149.13C72.5299 151.71 73.1799 155.33 71.9199 159.32C71.7199 159.96 71.1299 160.37 70.49 160.37H70.4999Z" fill="#292B34"/>
</g>
<defs>
<clipPath id="clip0_1_11">
<rect width="158.71" height="125.38" fill="white" transform="translate(18 36)"/>
</clipPath>
</defs>
</svg>
