<svg width="200" height="200" viewBox="0 0 200 200" fill="none" xmlns="http://www.w3.org/2000/svg">
<g clip-path="url(#clip0_1_8)">
<path d="M100.12 130.42C76.12 130.42 61.12 150.09 58.62 159.92C72.79 162.92 116.12 167.12 144.12 159.92C140.12 150.09 124.12 130.42 100.12 130.42Z" fill="#C6CCCC"/>
<path d="M144.13 161.42C143.54 161.42 142.98 161.07 142.74 160.49C138.95 151.17 123.54 131.92 100.13 131.92C76.72 131.92 62.52 150.71 60.08 160.29C59.88 161.09 59.06 161.58 58.26 161.37C57.46 161.17 56.97 160.35 57.18 159.55C59.81 149.2 75.59 128.92 100.13 128.92C124.67 128.92 141.48 149.42 145.52 159.35C145.83 160.12 145.46 160.99 144.7 161.31C144.51 161.39 144.32 161.42 144.14 161.42H144.13Z" fill="#292B34"/>
<path d="M171.12 94.38C171.12 110.83 163.37 122.66 150.75 130.45C138.04 138.29 120.36 142.04 100.63 142.04C80.9 142.04 63.22 138.28 50.51 130.45C37.88 122.66 30.14 110.83 30.14 94.38C30.14 77.93 37.89 66.1 50.51 58.31C63.22 50.47 80.91 46.72 100.63 46.72C120.35 46.72 138.04 50.48 150.75 58.31C163.38 66.1 171.12 77.93 171.12 94.38Z" fill="white"/>
<path d="M100.62 143.54C79.85 143.54 62.25 139.45 49.71 131.72C35.73 123.1 28.63 110.53 28.63 94.38C28.63 78.23 35.72 65.66 49.72 57.03C62.25 49.3 79.86 45.21 100.63 45.21C121.4 45.21 139 49.3 151.54 57.03C165.53 65.66 172.63 78.23 172.63 94.38C172.63 110.53 165.54 123.1 151.54 131.73C139.01 139.46 121.4 143.55 100.63 143.55L100.62 143.54ZM100.62 48.21C80.41 48.21 63.35 52.14 51.29 59.58C38.25 67.63 31.63 79.34 31.63 94.38C31.63 109.42 38.25 121.13 51.29 129.18C63.35 136.62 80.41 140.55 100.62 140.55C120.83 140.55 137.89 136.62 149.95 129.18C163 121.13 169.61 109.42 169.61 94.38C169.61 79.34 162.99 67.63 149.95 59.58C137.89 52.14 120.83 48.21 100.62 48.21Z" fill="#292B34"/>
<path fill-rule="evenodd" clip-rule="evenodd" d="M103.63 84.93C103.63 84.93 111.43 61.43 132.63 61.43C159.13 61.43 169.63 76.93 171.13 92.43L171.63 84.47C165.92 57.38 136.3 45.21 100.63 45.21C64.96 45.21 35.37 57.37 29.63 84.44L31.12 98.93C31.12 74.43 45.12 60.43 71.12 60.43C92.62 60.43 97.62 84.93 97.62 84.93H103.62H103.63Z" fill="#292B34"/>
<path d="M62.62 89.42C61.51 89.42 60.5 88.68 60.2 87.56C59.85 86.23 60.65 84.86 61.98 84.51C69.8 82.45 78.79 79.38 81.87 77.49C78.79 75.58 69.8 72.46 61.97 70.34C60.64 69.98 59.85 68.61 60.21 67.27C60.57 65.94 61.94 65.15 63.28 65.51C87.21 71.97 87.51 75.79 87.62 77.23C87.75 78.9 88.06 82.81 63.27 89.34C63.06 89.4 62.84 89.42 62.63 89.42H62.62Z" fill="#292B34"/>
<path d="M139.63 89.42C139.4 89.42 139.16 89.39 138.93 89.32C115.23 82.42 114.82 79.13 114.65 77.73C114.43 75.92 114.01 72.54 138.95 65.52C140.28 65.14 141.66 65.92 142.03 67.25C142.4 68.58 141.63 69.96 140.3 70.33C132.73 72.46 124.06 75.48 120.66 77.34C124.06 79.22 132.74 82.32 140.32 84.52C141.65 84.91 142.41 86.29 142.02 87.62C141.7 88.71 140.7 89.42 139.62 89.42H139.63Z" fill="#292B34"/>
<path d="M88.63 116.42L91.63 89.42H110.13L113.13 116.42H88.63Z" fill="#FFACC1"/>
<path d="M114.8 117.92H86.95L90.28 87.92H111.47L114.8 117.92ZM90.3 114.92H111.45L108.78 90.92H92.97L90.3 114.92Z" fill="#292B34"/>
<path d="M100.63 79.42C94.77 79.42 90.56 85.57 88.99 89.42C88.77 89.95 89.1 90.54 89.66 90.68L100.38 93.36C100.54 93.4 100.71 93.4 100.86 93.36L111.54 90.69C112.12 90.55 112.44 89.94 112.2 89.39C110.52 85.54 106.46 79.42 100.61 79.42H100.63Z" fill="#FDC507"/>
<path d="M100.62 94.89C100.42 94.89 100.21 94.87 100.02 94.82L89.29 92.14C88.59 91.96 88 91.5 87.68 90.86C87.36 90.24 87.33 89.51 87.6 88.86C89.25 84.8 93.85 77.92 100.63 77.92C106.7 77.92 111.31 83.54 113.59 88.79C113.88 89.45 113.86 90.19 113.54 90.83C113.22 91.48 112.62 91.96 111.91 92.14L101.23 94.81C101.03 94.86 100.83 94.88 100.62 94.88V94.89ZM90.64 89.38L100.62 91.88L110.56 89.39C108.65 85.35 105.02 80.92 100.62 80.92C95.75 80.92 92.12 86.14 90.64 89.38Z" fill="#292B34"/>
<path d="M113.28 116.42H88.13C87.41 116.42 86.95 117.14 87.34 117.74C89.16 120.54 93.53 124.42 101.11 124.42C108.69 124.42 112.66 120.46 114.11 117.66C114.42 117.06 113.95 116.42 113.28 116.42Z" fill="#FDC507"/>
<path d="M101.11 125.92C91.61 125.92 87.21 120.29 86.09 118.56C85.61 117.83 85.58 116.94 85.99 116.18C86.41 115.4 87.24 114.92 88.14 114.92H113.29C114.15 114.92 114.95 115.36 115.38 116.08C115.8 116.77 115.83 117.62 115.45 118.35C114.53 120.13 110.78 125.92 101.11 125.92ZM89.34 117.92C90.92 119.8 94.53 122.92 101.11 122.92C107.69 122.92 110.9 119.78 112.2 117.92H89.34Z" fill="#292B34"/>
<path d="M159.12 123.42C160.72 112.62 152.12 99.59 147.62 94.42C142.82 95.22 139.95 98.75 139.12 100.42C145.52 110.42 144.12 125.59 143.62 133.92C149.62 132.72 156.45 126.42 159.12 123.42Z" fill="#8BD5F9"/>
<path d="M143.62 135.42C143.29 135.42 142.96 135.31 142.69 135.1C142.3 134.8 142.09 134.32 142.12 133.83C142.54 126.8 143.33 113.71 137.74 101.02C137.41 100.26 137.75 99.38 138.51 99.04C139.27 98.71 140.15 99.05 140.49 99.81C145.8 111.87 145.65 124.1 145.24 131.72C150.59 129.46 155.45 125.17 157.69 122.75C158.9 112.69 150.93 100.5 146.48 95.4C145.94 94.78 146 93.83 146.63 93.28C147.25 92.74 148.2 92.8 148.75 93.43C153.58 98.97 162.26 112.42 160.6 123.64C160.56 123.93 160.43 124.2 160.24 124.42C157.72 127.26 151.09 133.19 144.06 135.36C143.92 135.4 143.77 135.43 143.62 135.43V135.42Z" fill="#292B34"/>
<path d="M42.32 123.42C40.72 112.62 49.32 99.59 53.82 94.42C58.62 95.22 61.49 98.75 62.32 100.42C55.92 110.42 57.32 125.59 57.82 133.92C51.82 132.72 44.99 126.42 42.32 123.42Z" fill="#8BD5F9"/>
<path d="M57.82 135.42C57.67 135.42 57.52 135.4 57.38 135.35C50.35 133.19 43.72 127.25 41.2 124.41C41.01 124.19 40.88 123.92 40.84 123.63C39.18 112.41 47.87 98.97 52.69 93.42C53.23 92.8 54.18 92.73 54.81 93.27C55.43 93.81 55.5 94.76 54.96 95.39C50.51 100.5 42.55 112.69 43.75 122.74C45.99 125.16 50.85 129.46 56.2 131.71C55.88 125.04 55.75 111.3 60.96 99.78C61.3 99.03 62.19 98.69 62.94 99.03C63.69 99.37 64.03 100.26 63.69 101.01C58.1 113.39 59.02 128.75 59.32 133.8C59.35 134.29 59.14 134.76 58.75 135.07C58.48 135.28 58.16 135.39 57.82 135.39V135.42Z" fill="#292B34"/>
<path d="M152.74 33.54C147.54 34.22 142.44 40.16 140.34 44.63C144.4 46.72 149.59 46.83 151.68 46.63C154.26 46.09 157.37 44.89 158.94 42.65C161.63 38.82 157.37 32.93 152.74 33.54Z" fill="#8BD5F9"/>
<path d="M151.68 48.13C150.98 48.13 150.36 47.64 150.21 46.93C150.04 46.12 150.56 45.32 151.37 45.16C154.32 44.55 156.63 43.32 157.71 41.79C158.51 40.65 158.45 39.08 157.55 37.6C156.66 36.14 154.89 34.77 152.93 35.03C148.63 35.6 143.84 40.68 141.7 45.27C141.35 46.02 140.45 46.34 139.71 45.99C138.96 45.64 138.63 44.75 138.99 44C140.95 39.81 146.36 32.87 152.55 32.06C155.42 31.68 158.45 33.29 160.13 36.05C161.64 38.55 161.66 41.41 160.18 43.52C158.12 46.46 154.17 47.65 152 48.1C151.9 48.12 151.79 48.13 151.69 48.13H151.68Z" fill="#292B34"/>
<path d="M168.31 53.04C165.5 52.95 162.2 54.18 160.13 55.52C161.58 58.05 164.35 59.87 165.55 60.46C166.44 60.78 167.48 61.04 168.53 61.09C173.19 61.29 172.98 53.19 168.31 53.04Z" fill="#8BD5F9"/>
<path d="M168.69 62.59C168.62 62.59 168.54 62.59 168.47 62.59C167.11 62.53 165.86 62.17 165.05 61.87C164.27 61.59 163.87 60.73 164.15 59.95C164.43 59.17 165.29 58.77 166.07 59.05C166.69 59.27 167.62 59.55 168.6 59.59C169.26 59.62 169.71 59.39 170.03 58.88C170.56 58.04 170.56 56.67 170.03 55.68C169.64 54.94 169.04 54.56 168.26 54.53C165.73 54.44 162.69 55.63 160.95 56.77C160.26 57.22 159.33 57.03 158.87 56.33C158.42 55.64 158.61 54.71 159.31 54.25C161.34 52.93 164.93 51.42 168.36 51.53C170.21 51.59 171.79 52.59 172.68 54.27C173.72 56.22 173.67 58.72 172.56 60.47C171.71 61.82 170.31 62.58 168.69 62.58V62.59Z" fill="#292B34"/>
<path d="M47.69 33.54C52.89 34.22 57.99 40.16 60.08 44.63C56.02 46.72 50.83 46.83 48.74 46.63C46.16 46.09 43.05 44.89 41.48 42.65C38.79 38.82 43.05 32.93 47.68 33.54H47.69Z" fill="#8BD5F9"/>
<path d="M48.75 48.13C48.65 48.13 48.55 48.12 48.44 48.1C46.27 47.65 42.32 46.45 40.26 43.52C38.78 41.41 38.8 38.54 40.31 36.05C41.98 33.28 45.03 31.68 47.88 32.05C54.07 32.87 59.48 39.81 61.44 43.99C61.79 44.74 61.47 45.63 60.72 45.98C59.97 46.33 59.08 46.01 58.73 45.26C56.59 40.67 51.8 35.59 47.5 35.02C45.54 34.76 43.77 36.13 42.88 37.59C41.98 39.07 41.92 40.64 42.72 41.78C43.79 43.31 46.1 44.54 49.06 45.15C49.87 45.32 50.39 46.11 50.22 46.92C50.07 47.63 49.45 48.12 48.75 48.12V48.13Z" fill="#292B34"/>
<path d="M32.11 53.04C34.92 52.95 38.22 54.18 40.29 55.52C38.84 58.05 36.07 59.87 34.87 60.46C33.98 60.78 32.94 61.04 31.9 61.09C27.24 61.29 27.45 53.19 32.12 53.04H32.11Z" fill="#8BD5F9"/>
<path d="M31.74 62.59C30.12 62.59 28.72 61.83 27.87 60.48C26.76 58.72 26.71 56.23 27.75 54.28C28.64 52.6 30.22 51.6 32.07 51.54C35.49 51.44 39.08 52.94 41.12 54.26C41.81 54.71 42.01 55.64 41.56 56.34C41.11 57.03 40.18 57.23 39.48 56.78C37.74 55.64 34.71 54.47 32.17 54.54C31.39 54.57 30.79 54.95 30.4 55.69C29.88 56.68 29.88 58.05 30.4 58.89C30.72 59.4 31.18 59.62 31.83 59.6C32.81 59.56 33.74 59.28 34.36 59.06C35.14 58.78 36 59.18 36.28 59.96C36.56 60.74 36.16 61.6 35.38 61.88C34.57 62.17 33.32 62.54 31.96 62.6C31.88 62.6 31.81 62.6 31.74 62.6V62.59Z" fill="#292B34"/>
<path d="M127.62 142.23C127.62 136.49 131.55 133.92 137.62 133.92C146.42 133.92 148.62 138.57 148.62 144.3V150.53C148.62 156.27 145.89 160.91 139.82 160.91C133.75 160.91 127.72 157.3 127.72 151.56L127.62 142.21V142.23Z" fill="#C6CCCC"/>
<path d="M139.83 162.42C133.14 162.42 126.23 158.36 126.23 151.57L126.13 142.22C126.13 135.99 130.32 132.41 137.63 132.41C145.92 132.41 150.13 136.41 150.13 144.29V150.52C150.13 157.85 146.18 162.4 139.83 162.4V162.42ZM129.13 142.22L129.23 151.56C129.23 156.49 134.62 159.42 139.83 159.42C146.42 159.42 147.13 153.21 147.13 150.54V144.31C147.13 138.08 144.29 135.43 137.63 135.43C131.99 135.43 129.13 137.72 129.13 142.23V142.22Z" fill="#292B34"/>
<path d="M74.62 142.23C74.62 136.49 70.7 133.92 64.62 133.92C55.82 133.92 53.62 138.57 53.62 144.3V150.53C53.62 156.27 56.34 160.91 62.42 160.91C68.5 160.91 74.52 157.3 74.52 151.56L74.62 142.21V142.23Z" fill="#C6CCCC"/>
<path d="M62.42 162.42C56.07 162.42 52.12 157.87 52.12 150.54V144.31C52.12 136.42 56.33 132.43 64.62 132.43C71.93 132.43 76.12 136.01 76.12 142.24V142.26L76.02 151.61C76.02 158.38 69.1 162.44 62.42 162.44V162.42ZM64.62 135.42C57.96 135.42 55.12 138.08 55.12 144.3V150.53C55.12 153.2 55.83 159.41 62.42 159.41C67.63 159.41 73.02 156.48 73.02 151.56L73.12 142.21C73.12 137.7 70.26 135.41 64.62 135.41V135.42Z" fill="#292B34"/>
</g>
<defs>
<clipPath id="clip0_1_8">
<rect width="146.43" height="131.9" fill="white" transform="translate(27 32)"/>
</clipPath>
</defs>
</svg>
