<svg width="180" height="181" viewBox="0 0 180 181" fill="none" xmlns="http://www.w3.org/2000/svg">
<g filter="url(#filter0_d_2_71)">
<path d="M0.725067 30.7325L75.3272 60.7646L75.3272 150.393L0.725128 120.361L0.725067 30.7325Z" fill="#36FF9A"/>
<path d="M0.725067 30.7325L75.3272 60.7646L149.725 30.7325L75.3272 0.743286L0.725067 30.7325Z" fill="#00B9FB"/>
<path d="M75.3272 60.7646L75.3272 150.393L149.725 120.361V30.7325L75.3272 60.7646Z" fill="#FF5566"/>
<path d="M73.3276 62.1154V147.432L2.72507 119.01V33.6935L73.3276 62.1154ZM147.725 119.011L77.3276 147.428V62.1134L147.725 33.6964V119.011ZM144.378 30.7335L75.3257 58.6075L6.08347 30.7335L75.3257 2.89856L144.378 30.7335Z" stroke="#202020" stroke-width="4" stroke-linejoin="round"/>
</g>
<defs>
<filter id="filter0_d_2_71" x="0.725067" y="0.743286" width="179" height="179.65" filterUnits="userSpaceOnUse" color-interpolation-filters="sRGB">
<feFlood flood-opacity="0" result="BackgroundImageFix"/>
<feColorMatrix in="SourceAlpha" type="matrix" values="0 0 0 0 0 0 0 0 0 0 0 0 0 0 0 0 0 0 127 0" result="hardAlpha"/>
<feOffset dx="30" dy="30"/>
<feComposite in2="hardAlpha" operator="out"/>
<feColorMatrix type="matrix" values="0 0 0 0 0 0 0 0 0 0 0 0 0 0 0 0 0 0 0.25 0"/>
<feBlend mode="normal" in2="BackgroundImageFix" result="effect1_dropShadow_2_71"/>
<feBlend mode="normal" in="SourceGraphic" in2="effect1_dropShadow_2_71" result="shape"/>
</filter>
</defs>
</svg>
