<svg width="200" height="200" viewBox="0 0 200 200" fill="none" xmlns="http://www.w3.org/2000/svg">
<g clip-path="url(#clip0_1_10)">
<path d="M102.12 129.43C81.06 129.43 71.41 149.1 69.22 158.93C81.65 161.93 112.65 166.63 137.22 159.43C133.71 149.6 123.18 129.43 102.12 129.43Z" fill="#C6CCCC"/>
<path d="M137.21 160.43C136.59 160.43 136.02 160.05 135.8 159.43C126.36 132.98 107.63 130.93 102.12 130.93C82.25 130.93 72.87 149.46 70.68 159.26C70.5 160.07 69.7 160.58 68.89 160.4C68.08 160.22 67.57 159.42 67.75 158.61C70.12 148 80.34 127.94 102.12 127.94C121.01 127.94 133.37 143.69 138.63 158.44C138.91 159.22 138.5 160.08 137.72 160.36C137.55 160.42 137.38 160.45 137.22 160.45L137.21 160.43Z" fill="#292B34"/>
<path d="M174.42 100.74C172.7 117.1 163.76 128.06 150.39 134.49C136.93 140.96 118.95 142.84 99.33 140.78C79.71 138.72 62.51 133.13 50.7 124.01C38.95 114.94 32.49 102.37 34.21 86C35.93 69.64 44.87 58.68 58.24 52.25C71.7 45.78 89.68 43.9 109.3 45.96C128.92 48.02 146.12 53.61 157.93 62.73C169.68 71.8 176.14 84.37 174.42 100.74Z" fill="white"/>
<path d="M114.05 143.08C109.28 143.08 104.31 142.81 99.17 142.27C78.51 140.1 61.43 134.19 49.78 125.2C36.77 115.15 31.02 101.91 32.71 85.85C34.4 69.78 42.77 58.03 57.59 50.91C70.86 44.53 88.79 42.31 109.45 44.48C130.11 46.65 147.19 52.56 158.84 61.55C171.85 71.6 177.6 84.83 175.91 100.9C174.22 116.97 165.85 128.72 151.03 135.84C141.06 140.63 128.45 143.08 114.04 143.08H114.05ZM94.55 46.66C80.6 46.66 68.45 49.01 58.89 53.6C45.07 60.24 37.27 71.19 35.7 86.15C34.13 101.11 39.48 113.45 51.62 122.81C62.84 131.47 79.39 137.16 99.49 139.27C119.59 141.39 136.97 139.26 149.74 133.12C163.56 126.48 171.36 115.53 172.93 100.57C174.5 85.61 169.15 73.28 157.01 63.91C145.8 55.25 129.24 49.56 109.14 47.45C104.1 46.92 99.22 46.66 94.55 46.66Z" fill="#292B34"/>
<path fill-rule="evenodd" clip-rule="evenodd" d="M107.97 87.27C107.97 87.27 118.18 64.71 139.27 66.93C165.63 69.7 174.45 86.21 174.32 101.78L176.03 91.65C173.6 63.66 145.24 48.23 109.46 44.47C72.94 40.64 41.47 50.29 34.05 78.44L34.4 93.61C36.96 69.24 52.35 56.78 78.21 59.5C99.59 61.75 102 86.64 102 86.64L107.97 87.27Z" fill="#292B34"/>
<path d="M63.0508 93.6114C63.3972 90.3159 59.2254 87.1763 53.7328 86.599C48.2402 86.0217 43.5068 88.2253 43.1604 91.5208C42.814 94.8164 46.9858 97.956 52.4784 98.5333C57.971 99.1106 62.7044 96.907 63.0508 93.6114Z" fill="#FFACC1"/>
<path d="M164.507 104.263C164.853 100.967 160.681 97.8274 155.189 97.2501C149.696 96.6728 144.963 98.8764 144.616 102.172C144.27 105.467 148.442 108.607 153.934 109.184C159.427 109.762 164.16 107.558 164.507 104.263Z" fill="#FFACC1"/>
<path d="M122.79 85.09C122.59 87 122.91 87.81 123.2 88.18C123.48 88.53 124.03 88.82 125.24 88.92C126.29 89.01 127.55 88.95 129.08 88.87C129.32 88.86 129.56 88.85 129.82 88.83C131.64 88.74 133.71 88.67 135.89 88.9C138.06 89.13 140.08 89.63 141.84 90.09C142.08 90.15 142.32 90.22 142.55 90.28C144.03 90.67 145.25 91 146.3 91.13C147.51 91.28 148.1 91.11 148.45 90.83C148.82 90.53 149.3 89.8 149.5 87.89C150.27 80.52 144.92 73.91 137.55 73.13C130.18 72.35 123.57 77.7 122.79 85.08V85.09Z" fill="white"/>
<path d="M147.1 92.69C146.74 92.69 146.4 92.66 146.11 92.62C144.95 92.48 143.66 92.13 142.16 91.73L141.45 91.54C139.78 91.1 137.82 90.61 135.73 90.39C133.64 90.17 131.62 90.24 129.9 90.33L129.24 90.36C127.61 90.44 126.27 90.51 125.12 90.41C124.18 90.33 122.84 90.11 122.04 89.12C121.34 88.25 121.1 86.88 121.3 84.93C121.72 80.97 123.65 77.4 126.75 74.89C129.85 72.38 133.74 71.23 137.7 71.65C145.88 72.51 151.84 79.87 150.98 88.05C150.77 90 150.25 91.29 149.39 92C148.71 92.55 147.87 92.69 147.1 92.69ZM132.71 87.25C133.77 87.25 134.89 87.29 136.04 87.41C138.35 87.65 140.44 88.17 142.21 88.64L142.93 88.83C144.32 89.2 145.52 89.52 146.47 89.64C147.23 89.73 147.49 89.65 147.53 89.64C147.53 89.63 147.84 89.22 147.99 87.74C148.68 81.2 143.92 75.32 137.38 74.63C134.22 74.3 131.1 75.22 128.63 77.22C126.15 79.22 124.61 82.07 124.28 85.24C124.13 86.7 124.34 87.17 124.37 87.23C124.37 87.23 124.62 87.35 125.37 87.42C126.32 87.5 127.5 87.44 128.99 87.37L129.74 87.33C130.66 87.29 131.65 87.24 132.7 87.24L132.71 87.25Z" fill="#292B34"/>
<path d="M141.07 86.88C141.48 82.95 138.48 79.42 134.36 78.99C130.24 78.56 126.57 81.39 126.15 85.32C125.74 89.25 129.21 88.3 133.33 88.73C137.45 89.16 140.65 90.81 141.07 86.88Z" fill="#292B34"/>
<path d="M90.82 81.73C90.62 83.64 90.14 84.37 89.77 84.67C89.42 84.95 88.82 85.12 87.62 84.97C86.57 84.84 85.36 84.52 83.87 84.12C83.64 84.06 83.4 84 83.16 83.93C81.4 83.47 79.38 82.97 77.21 82.74C75.04 82.51 72.96 82.58 71.15 82.67C70.9 82.68 70.65 82.69 70.41 82.71C68.88 82.79 67.62 82.85 66.57 82.76C65.36 82.65 64.81 82.37 64.52 82.02C64.22 81.65 63.91 80.84 64.11 78.93C64.89 71.56 71.49 66.21 78.87 66.98C86.24 67.76 91.59 74.36 90.82 81.74V81.73Z" fill="white"/>
<path d="M88.42 86.53C88.06 86.53 87.73 86.5 87.43 86.46C86.28 86.32 84.99 85.97 83.49 85.58L82.77 85.39C81.1 84.95 79.14 84.46 77.05 84.24C74.96 84.02 72.94 84.09 71.21 84.18L70.48 84.22C68.93 84.3 67.59 84.37 66.43 84.27C65.49 84.19 64.15 83.97 63.35 82.98C62.65 82.11 62.41 80.74 62.61 78.79C63.03 74.83 64.96 71.26 68.06 68.75C71.16 66.24 75.05 65.08 79.01 65.51C87.2 66.37 93.15 73.73 92.29 81.91C92.08 83.86 91.56 85.15 90.7 85.86C90.02 86.41 89.18 86.55 88.41 86.55L88.42 86.53ZM74.03 81.09C75.09 81.09 76.21 81.13 77.36 81.25C79.66 81.49 81.75 82.01 83.53 82.48L84.25 82.67C85.71 83.06 86.85 83.36 87.79 83.48C88.55 83.57 88.82 83.49 88.85 83.48C88.85 83.47 89.16 83.06 89.31 81.58C90 75.04 85.24 69.16 78.7 68.47C75.53 68.14 72.42 69.06 69.95 71.06C67.47 73.06 65.93 75.91 65.59 79.08C65.44 80.54 65.65 81.01 65.68 81.07C65.68 81.05 65.94 81.19 66.68 81.26C67.63 81.34 68.88 81.28 70.31 81.21L71.05 81.17C71.97 81.13 72.96 81.08 74.01 81.08L74.03 81.09Z" fill="#292B34"/>
<path d="M72.57 79.68C72.98 75.75 76.66 72.92 80.78 73.35C84.9 73.78 87.9 77.32 87.49 81.24C87.08 85.17 83.87 83.52 79.75 83.09C75.63 82.66 72.15 83.6 72.57 79.68Z" fill="#292B34"/>
<path d="M95.31 112.08L94.63 89.89L116.51 92.19L111.23 113.76L95.32 112.09L95.31 112.08Z" fill="#FFACC1"/>
<path d="M111.22 115.25C111.17 115.25 111.12 115.25 111.06 115.25L95.15 113.58C94.4 113.5 93.83 112.88 93.81 112.13L93.13 89.94C93.12 89.51 93.29 89.09 93.61 88.79C93.93 88.5 94.36 88.35 94.79 88.4L116.67 90.7C117.1 90.75 117.49 90.97 117.74 91.33C117.99 91.68 118.07 92.13 117.97 92.55L112.69 114.12C112.52 114.8 111.92 115.26 111.23 115.26L111.22 115.25ZM96.77 110.72L110.08 112.12L114.64 93.49L96.18 91.55L96.77 110.72Z" fill="#292B34"/>
<path d="M106.61 81.09C100.87 80.49 96.1 85.98 94.08 89.65C93.77 90.21 94.12 90.89 94.76 91.01L105.28 93.01C105.33 93.02 105.39 93.03 105.45 93.03L116.1 93.26C116.76 93.27 117.25 92.66 117.04 92.03C115.73 88.01 112.34 81.69 106.62 81.09H106.61Z" fill="#FDC507"/>
<path d="M116.1 94.76C116.1 94.76 116.06 94.76 116.05 94.76L105.4 94.53C105.27 94.53 105.13 94.51 104.99 94.49L94.47 92.49C93.69 92.34 93.03 91.83 92.69 91.12C92.36 90.42 92.38 89.62 92.76 88.94C94.84 85.15 100.14 78.91 106.76 79.61C112.71 80.23 116.7 86.2 118.45 91.58C118.69 92.32 118.56 93.14 118.09 93.77C117.63 94.4 116.88 94.77 116.1 94.77V94.76ZM95.79 89.69L105.54 91.54L115.33 91.74C114.41 89.27 111.61 83.13 106.44 82.58C101.73 82.09 97.72 86.52 95.79 89.68V89.69Z" fill="#292B34"/>
<path d="M112.23 110.84L95.05 109.03C94.36 108.96 93.79 109.6 93.96 110.27C94.69 113.16 96.18 117.19 102.72 117.88C109.33 118.58 111.84 114.86 113.03 112.17C113.29 111.57 112.88 110.9 112.23 110.84Z" fill="#FDC507"/>
<path d="M104.31 119.47C103.75 119.47 103.17 119.44 102.57 119.38C94.51 118.53 93.06 112.8 92.51 110.65C92.31 109.86 92.51 109.03 93.05 108.41C93.59 107.79 94.4 107.47 95.21 107.55L112.39 109.36C113.18 109.44 113.89 109.9 114.29 110.58C114.69 111.26 114.73 112.07 114.41 112.79C112.44 117.24 109.05 119.48 104.31 119.48V119.47ZM95.61 110.6C96.43 113.38 98.03 115.88 102.88 116.39C108.04 116.93 110.2 114.47 111.34 112.25L95.61 110.6Z" fill="#292B34"/>
<path d="M86.19 140.92L86.22 140.94C86.22 140.94 85.8 150.01 82.22 153.94C78.54 157.97 69.24 159.09 69.24 159.09C60.77 148.08 45.22 127.44 51.13 120.46C55.87 114.85 79.88 135.48 86.2 140.91L86.19 140.92Z" fill="#C6CCCC"/>
<path d="M69.23 160.59C68.78 160.59 68.34 160.39 68.04 160C54.83 142.83 43.51 126.02 50.05 119.4C55.39 113.99 72.92 126.96 86.69 138.79C87.32 139.33 87.39 140.28 86.85 140.91C86.31 141.54 85.36 141.61 84.73 141.07C65.45 124.51 54.34 119.32 52.18 121.51C46.58 127.18 63.9 149.69 70.42 158.17C70.92 158.83 70.8 159.77 70.15 160.27C69.88 160.48 69.56 160.58 69.24 160.58L69.23 160.59Z" fill="#292B34"/>
<path d="M49.72 145.94C49.28 145.94 48.84 145.74 48.54 145.37C48.31 145.07 42.79 137.98 41.74 131.17C41.61 130.35 42.18 129.59 42.99 129.46C43.81 129.34 44.57 129.9 44.7 130.71C45.63 136.74 50.85 143.45 50.9 143.51C51.41 144.16 51.3 145.1 50.65 145.62C50.38 145.84 50.05 145.94 49.72 145.94Z" fill="#292B34"/>
<path d="M42.22 146.94C41.77 146.94 41.33 146.74 41.04 146.36C40.89 146.17 37.35 141.58 35.79 136.37C35.55 135.58 36 134.74 36.8 134.5C37.6 134.26 38.43 134.71 38.67 135.51C40.07 140.17 43.38 144.48 43.42 144.52C43.93 145.17 43.81 146.12 43.16 146.62C42.89 146.83 42.56 146.94 42.24 146.94H42.22Z" fill="#292B34"/>
<path d="M151.85 48.55C151.65 48.55 151.44 48.51 151.24 48.42C150.48 48.08 150.14 47.2 150.48 46.44L155.97 34.11C156.31 33.35 157.19 33.01 157.95 33.35C158.71 33.69 159.05 34.57 158.71 35.33L153.22 47.66C152.97 48.22 152.42 48.55 151.85 48.55Z" fill="#292B34"/>
<path d="M162 55.25C161.7 55.25 161.39 55.16 161.12 54.97C160.45 54.48 160.3 53.55 160.78 52.88L166.47 45.01C166.96 44.34 167.89 44.19 168.56 44.67C169.23 45.16 169.38 46.09 168.9 46.76L163.21 54.63C162.92 55.04 162.46 55.25 161.99 55.25H162Z" fill="#292B34"/>
<path d="M140.08 45.49C139.98 45.49 139.87 45.48 139.76 45.46C138.95 45.29 138.43 44.49 138.61 43.68L140.65 34.19C140.82 33.38 141.63 32.87 142.43 33.04C143.24 33.21 143.76 34.01 143.58 34.82L141.54 44.31C141.39 45.01 140.77 45.5 140.08 45.5V45.49Z" fill="#292B34"/>
<path d="M35.46 39.6C35.3 38.93 34.7 38.45 34 38.45C33.3 38.45 32.7 38.93 32.54 39.6L31.51 43.9C31 46.04 29.44 47.77 27.38 48.51L24.5 49.54C23.9 49.75 23.5 50.32 23.5 50.95C23.5 51.58 23.9 52.15 24.5 52.36L27.38 53.39C29.45 54.13 31 55.86 31.51 58L32.54 62.3C32.7 62.97 33.3 63.45 34 63.45C34.7 63.45 35.3 62.97 35.46 62.3L36.49 58C37 55.86 38.56 54.13 40.62 53.39L43.5 52.36C44.1 52.15 44.5 51.58 44.5 50.95C44.5 50.32 44.1 49.75 43.5 49.54L40.62 48.51C38.55 47.77 37 46.04 36.49 43.9L35.46 39.6Z" fill="#FDF52F"/>
<path d="M34 64.95C32.61 64.95 31.41 64 31.08 62.65L30.05 58.35C29.66 56.7 28.47 55.38 26.87 54.81L23.99 53.78C22.8 53.35 22 52.22 22 50.96C22 49.7 22.8 48.56 23.99 48.13L26.87 47.1C28.47 46.53 29.66 45.2 30.05 43.56L31.08 39.26C31.4 37.9 32.6 36.96 34 36.96C35.4 36.96 36.59 37.91 36.92 39.26L37.95 43.56C38.34 45.21 39.53 46.53 41.13 47.1L44.01 48.13C45.2 48.56 46 49.69 46 50.96C46 52.23 45.2 53.36 44.01 53.78L41.13 54.81C39.53 55.38 38.34 56.71 37.95 58.35L36.92 62.65C36.6 64.01 35.4 64.95 34 64.95ZM34 39.95L32.97 44.25C32.34 46.89 30.44 49.01 27.88 49.92L25 50.95L27.88 51.98C30.43 52.89 32.34 55.01 32.97 57.65L34 61.95L35.03 57.65C35.66 55.01 37.56 52.89 40.12 51.98L43 50.95L40.12 49.92C37.57 49.01 35.66 46.89 35.03 44.25L34 39.95Z" fill="#292B34"/>
<path d="M157.68 141.59C157.52 140.91 156.92 140.44 156.22 140.44C155.52 140.44 154.92 140.92 154.76 141.59L153.73 145.89C153.22 148.02 151.66 149.76 149.6 150.5L146.72 151.53C146.12 151.74 145.73 152.31 145.73 152.94C145.73 153.57 146.13 154.14 146.72 154.35L149.6 155.38C151.67 156.12 153.22 157.85 153.73 159.99L154.76 164.29C154.92 164.97 155.52 165.44 156.22 165.44C156.92 165.44 157.52 164.96 157.68 164.29L158.71 159.99C159.22 157.86 160.78 156.12 162.84 155.38L165.72 154.35C166.32 154.14 166.71 153.57 166.71 152.94C166.71 152.31 166.31 151.74 165.72 151.53L162.84 150.5C160.77 149.76 159.22 148.03 158.71 145.89L157.68 141.59Z" fill="#FDF52F"/>
<path d="M156.22 166.94C154.83 166.94 153.63 165.99 153.3 164.64L152.27 160.34C151.88 158.69 150.69 157.37 149.09 156.8L146.21 155.77C145.02 155.35 144.22 154.21 144.22 152.95C144.22 151.69 145.02 150.55 146.21 150.12L149.09 149.09C150.69 148.52 151.88 147.19 152.27 145.55L153.3 141.25C153.63 139.89 154.83 138.95 156.22 138.95C157.61 138.95 158.81 139.9 159.14 141.25L160.17 145.55C160.56 147.2 161.75 148.52 163.35 149.09L166.23 150.12C167.42 150.54 168.22 151.68 168.22 152.94C168.22 154.2 167.42 155.34 166.23 155.77L163.35 156.8C161.75 157.37 160.56 158.7 160.17 160.34L159.14 164.64C158.81 166 157.61 166.94 156.22 166.94ZM156.22 141.94L155.19 146.24C154.56 148.88 152.66 151 150.1 151.91L147.22 152.94L150.1 153.97C152.65 154.88 154.56 157 155.19 159.64L156.22 163.94L157.25 159.64C157.88 157 159.78 154.88 162.34 153.97L165.22 152.94L162.34 151.91C159.79 151 157.88 148.88 157.25 146.24L156.22 141.94Z" fill="#292B34"/>
</g>
<defs>
<clipPath id="clip0_1_10">
<rect width="154.2" height="133.94" fill="white" transform="translate(22 33)"/>
</clipPath>
</defs>
</svg>
