<svg width="187" height="206" viewBox="0 0 187 206" fill="none" xmlns="http://www.w3.org/2000/svg">
<g filter="url(#filter0_d_2_73)">
<path d="M131.038 175.539L102.619 13.4475L62.2245 85.3242L21.8305 157.201L131.038 175.539Z" fill="#FF5566"/>
<path d="M21.8305 157.201L62.2245 85.3242L102.619 13.4475L6.2977 121.543C5.7618 122.145 5.63763 123.008 5.98242 123.736L21.8305 157.201Z" fill="#FEDF46"/>
<path d="M102.619 13.4475L131.038 175.539L156.392 148.976C156.937 148.405 157.096 147.567 156.799 146.836L102.619 13.4475Z" fill="#00B9FB"/>
<path d="M128.58 173.098L24.9679 155.7L63.9681 86.3039L101.616 19.3126L128.58 173.098ZM60.4809 84.3439L21.982 152.848L7.7898 122.88C7.78906 122.878 7.78945 122.876 7.79077 122.874L91.8302 28.56L60.4809 84.3439ZM154.947 147.589C154.947 147.591 154.947 147.593 154.946 147.595L132.324 171.294L107.831 31.5944L154.947 147.589Z" stroke="#202020" stroke-width="4" stroke-linejoin="round"/>
<line x1="102.054" y1="17.9489" x2="85.3778" y2="112.635" stroke="#202020" stroke-width="4" stroke-linecap="round"/>
<path d="M85.214 113.483L154.776 147.354" stroke="#202020" stroke-width="4" stroke-dasharray="18 13"/>
<path d="M85.411 113.635L8.60127 122.928" stroke="#202020" stroke-width="4" stroke-dasharray="18 13"/>
</g>
<defs>
<filter id="filter0_d_2_73" x="0.20253" y="0.564209" width="207.566" height="208.507" filterUnits="userSpaceOnUse" color-interpolation-filters="sRGB">
<feFlood flood-opacity="0" result="BackgroundImageFix"/>
<feColorMatrix in="SourceAlpha" type="matrix" values="0 0 0 0 0 0 0 0 0 0 0 0 0 0 0 0 0 0 127 0" result="hardAlpha"/>
<feOffset dx="30" dy="30"/>
<feComposite in2="hardAlpha" operator="out"/>
<feColorMatrix type="matrix" values="0 0 0 0 0 0 0 0 0 0 0 0 0 0 0 0 0 0 0.25 0"/>
<feBlend mode="normal" in2="BackgroundImageFix" result="effect1_dropShadow_2_73"/>
<feBlend mode="normal" in="SourceGraphic" in2="effect1_dropShadow_2_73" result="shape"/>
</filter>
</defs>
</svg>
