<svg width="185" height="185" viewBox="0 0 185 185" fill="none" xmlns="http://www.w3.org/2000/svg">
<g filter="url(#filter0_d_2_13)">
<path d="M152.719 152.229L92.7468 111.891V152.229H152.719Z" fill="#00B9FB"/>
<path d="M62.8764 91.9776H2.87909L63.6271 132.8L62.8764 91.9776Z" fill="#00B9FB"/>
<path d="M63.6271 132.8L92.743 152.366V112.129L62.8764 91.9776L63.6271 132.8Z" fill="#00B9FB"/>
<path d="M92.743 62.2106L62.8764 42.2789V91.9776L92.743 112.129V62.2106Z" fill="#FF5566"/>
<path d="M5.40308 2.23895L93.4854 63.3179H151.35L62.6244 2.23895H5.40308Z" fill="#FEDF46" stroke="#202020"/>
<path d="M152.719 62.3766H92.5334V112.958L151.652 152.015L152.719 62.3766Z" fill="#FF5566"/>
<path d="M2.86145 92.2835H62.8615V42.2835L2.86145 2.28348V92.2835Z" fill="#36FF9A"/>
<path d="M2.86145 2.28348H62.8615L107.861 32.2835L152.861 62.2835M2.86145 2.28348V92.2835M2.86145 2.28348L62.8615 42.2835M2.86145 92.2835H62.8615V42.2835M2.86145 92.2835L92.8615 152.283M92.8615 62.2835H152.861M92.8615 62.2835V152.283M92.8615 62.2835L62.8615 42.2835M152.861 62.2835V152.283H92.8615" stroke="#202020" stroke-width="4" stroke-linejoin="round"/>
<path d="M62.8615 92.2835L72.3615 98.6168M152.861 152.283L143.361 145.95M84.0189 106.388L102.361 118.617M113.861 126.283L131.861 138.283" stroke="#202020" stroke-width="4" stroke-linecap="round" stroke-linejoin="round"/>
</g>
<defs>
<filter id="filter0_d_2_13" x="0.86145" y="0.283478" width="184" height="184" filterUnits="userSpaceOnUse" color-interpolation-filters="sRGB">
<feFlood flood-opacity="0" result="BackgroundImageFix"/>
<feColorMatrix in="SourceAlpha" type="matrix" values="0 0 0 0 0 0 0 0 0 0 0 0 0 0 0 0 0 0 127 0" result="hardAlpha"/>
<feOffset dx="30" dy="30"/>
<feComposite in2="hardAlpha" operator="out"/>
<feColorMatrix type="matrix" values="0 0 0 0 0 0 0 0 0 0 0 0 0 0 0 0 0 0 0.25 0"/>
<feBlend mode="normal" in2="BackgroundImageFix" result="effect1_dropShadow_2_13"/>
<feBlend mode="normal" in="SourceGraphic" in2="effect1_dropShadow_2_13" result="shape"/>
</filter>
</defs>
</svg>
