<svg width="200" height="200" viewBox="0 0 200 200" fill="none" xmlns="http://www.w3.org/2000/svg">
<g clip-path="url(#clip0_1_7)">
<path d="M98.9 125.21C77.84 125.21 68.19 144.88 66 154.71C78.43 157.71 109.43 161.91 134 154.71C130.49 144.88 119.96 125.21 98.9 125.21Z" fill="#C6CCCC"/>
<path d="M133.99 156.21C133.37 156.21 132.8 155.83 132.58 155.21C123.14 128.76 104.41 126.71 98.9 126.71C79.03 126.71 69.65 145.24 67.46 155.04C67.28 155.85 66.48 156.36 65.67 156.18C64.86 156 64.35 155.2 64.53 154.39C66.9 143.78 77.12 123.72 98.9 123.72C117.79 123.72 130.15 139.47 135.41 154.22C135.69 155 135.28 155.86 134.5 156.14C134.33 156.2 134.16 156.23 134 156.23L133.99 156.21Z" fill="#292B34"/>
<path d="M170.49 91.17C170.49 107.62 162.75 119.45 150.12 127.24C137.41 135.08 119.72 138.83 100 138.83C80.28 138.83 62.59 135.07 49.88 127.24C37.25 119.45 29.5 107.62 29.5 91.17C29.5 74.72 37.25 62.88 49.87 55.09C62.58 47.26 80.27 43.5 99.99 43.5C119.71 43.5 137.4 47.26 150.11 55.09C162.74 62.88 170.48 74.71 170.48 91.16L170.49 91.17Z" fill="white"/>
<path d="M99.99 140.33C79.22 140.33 61.62 136.24 49.08 128.51C35.09 119.89 28 107.32 28 91.17C28 75.02 35.09 62.45 49.09 53.82C61.62 46.09 79.22 42 99.99 42C120.76 42 138.36 46.09 150.9 53.82C164.89 62.45 171.99 75.02 171.99 91.17C171.99 107.32 164.9 119.89 150.9 128.52C138.37 136.25 120.76 140.34 99.99 140.34V140.33ZM99.99 45C79.78 45 62.72 48.93 50.66 56.37C37.62 64.42 31 76.12 31 91.17C31 106.22 37.62 117.92 50.66 125.97C62.72 133.41 79.78 137.34 99.99 137.34C120.2 137.34 137.26 133.41 149.32 125.97C162.37 117.92 168.98 106.21 168.98 91.17C168.98 76.13 162.36 64.42 149.32 56.37C137.26 48.93 120.2 45 99.99 45Z" fill="#292B34"/>
<path fill-rule="evenodd" clip-rule="evenodd" d="M102.99 101.71C102.99 101.71 110.79 78.21 131.99 78.21C156.2 78.21 167.06 91.15 169.9 105.21C170.33 103.85 170.7 102.45 171.01 101L171.86 87.44C169.58 56.01 138.27 42 99.99 42C61.71 42 28 57.12 28 91.17C28 91.28 28 91.39 28 91.49L28.98 100.99C29.48 103.38 30.17 105.66 31.03 107.82C33.81 88.23 47.43 77.21 70.5 77.21C92 77.21 97 101.71 97 101.71H103H102.99Z" fill="#292B34"/>
<path d="M130.98 111.47C138.397 111.47 144.41 105.457 144.41 98.04C144.41 90.6228 138.397 84.61 130.98 84.61C123.563 84.61 117.55 90.6228 117.55 98.04C117.55 105.457 123.563 111.47 130.98 111.47Z" fill="white"/>
<path d="M130.98 112.96C122.75 112.96 116.05 106.26 116.05 98.03C116.05 89.8 122.75 83.1 130.98 83.1C139.21 83.1 145.91 89.8 145.91 98.03C145.91 106.26 139.21 112.96 130.98 112.96ZM130.98 86.11C124.4 86.11 119.05 91.46 119.05 98.04C119.05 104.62 124.4 109.97 130.98 109.97C137.56 109.97 142.91 104.62 142.91 98.04C142.91 91.46 137.56 86.11 130.98 86.11Z" fill="#292B34"/>
<path d="M123.13 97.98C122 100.8 123.38 104 126.2 105.13C129.02 106.26 132.22 104.88 133.35 102.06C134.48 99.24 131.82 99.26 129 98.13C126.18 97 124.27 95.16 123.14 97.98H123.13Z" fill="#292B34"/>
<path d="M141.8 102.87C128.76 102.87 118.58 93.78 118.13 93.38L120.14 91.16C120.24 91.25 130.82 100.64 143.41 99.82L143.61 102.81C143 102.85 142.39 102.87 141.79 102.87H141.8Z" fill="#292B34"/>
<path d="M71.13 111.47C78.5472 111.47 84.56 105.457 84.56 98.04C84.56 90.6228 78.5472 84.61 71.13 84.61C63.7128 84.61 57.7 90.6228 57.7 98.04C57.7 105.457 63.7128 111.47 71.13 111.47Z" fill="white"/>
<path d="M71.13 112.96C62.9 112.96 56.2 106.26 56.2 98.03C56.2 89.8 62.9 83.1 71.13 83.1C79.36 83.1 86.06 89.8 86.06 98.03C86.06 106.26 79.36 112.96 71.13 112.96ZM71.13 86.11C64.55 86.11 59.2 91.46 59.2 98.04C59.2 104.62 64.55 109.97 71.13 109.97C77.71 109.97 83.06 104.62 83.06 98.04C83.06 91.46 77.71 86.11 71.13 86.11Z" fill="#292B34"/>
<path d="M78.99 97.98C80.12 100.8 78.74 104 75.92 105.13C73.1 106.26 69.9 104.88 68.77 102.06C67.64 99.24 70.3 99.26 73.12 98.13C75.94 97 77.86 95.16 78.98 97.98H78.99Z" fill="#292B34"/>
<path d="M60.32 102.87C59.72 102.87 59.12 102.85 58.51 102.81L58.71 99.82C71.32 100.64 81.87 91.25 81.98 91.16L83.99 93.38C83.54 93.78 73.37 102.87 60.32 102.87Z" fill="#292B34"/>
<path d="M109.88 113.66H90.69C89.98 113.66 89.48 114.38 89.75 115.04C90.88 117.83 92.99 121.66 100.19 121.66C107.39 121.66 109.81 117.73 110.81 114.93C111.03 114.3 110.55 113.66 109.88 113.66Z" fill="#FDC507"/>
<path d="M100.19 123.16C91.42 123.16 89.2 117.67 88.36 115.6C88.05 114.83 88.14 113.96 88.61 113.27C89.08 112.57 89.86 112.16 90.7 112.16H109.89C110.7 112.16 111.46 112.55 111.93 113.21C112.39 113.86 112.5 114.68 112.24 115.43C110.41 120.56 106.36 123.16 100.21 123.16H100.19ZM91.43 115.16C92.66 117.84 94.72 120.16 100.19 120.16C105.98 120.16 108.1 117.49 109.11 115.16H91.44H91.43Z" fill="#292B34"/>
<path d="M100.21 102.66C94.39 102.66 90.2 108.72 88.61 112.58C88.38 113.14 88.75 113.75 89.35 113.85L100.05 115.63C100.16 115.65 100.27 115.65 100.38 115.63L111.03 113.85C111.65 113.75 112.02 113.11 111.77 112.54C110.07 108.68 106.02 102.66 100.22 102.66H100.21Z" fill="#FDC507"/>
<path d="M100.21 117.15C100.07 117.15 99.93 117.14 99.79 117.11L89.1 115.33C88.35 115.21 87.71 114.76 87.34 114.1C86.98 113.45 86.94 112.69 87.22 112.01C88.88 107.98 93.49 101.16 100.21 101.16C106.24 101.16 110.84 106.73 113.13 111.94C113.43 112.63 113.4 113.41 113.05 114.07C112.68 114.75 112.04 115.21 111.27 115.33L100.62 117.1C100.49 117.12 100.35 117.13 100.21 117.13V117.15ZM90.29 112.49L100.21 114.14L110.08 112.49C108.16 108.51 104.56 104.16 100.2 104.16C95.4 104.16 91.78 109.27 90.28 112.49H90.29Z" fill="#292B34"/>
<path d="M59.99 117.21C61.54 117.21 63.31 116.91 64.76 116.11C66.26 115.28 67.49 113.84 67.49 111.71C67.49 109.58 66.26 108.13 64.76 107.31C63.32 106.51 61.54 106.21 59.99 106.21C58.44 106.21 56.67 106.51 55.22 107.31C53.72 108.14 52.49 109.58 52.49 111.71C52.49 113.84 53.72 115.29 55.22 116.11C56.66 116.91 58.44 117.21 59.99 117.21Z" fill="#8BD5F9"/>
<path d="M59.99 118.71C57.95 118.71 56 118.25 54.5 117.43C52.27 116.2 50.99 114.12 50.99 111.71C50.99 109.3 52.27 107.22 54.5 105.99C56 105.16 57.95 104.71 59.99 104.71C62.03 104.71 63.98 105.17 65.48 105.99C67.71 107.22 68.99 109.3 68.99 111.71C68.99 114.12 67.71 116.2 65.48 117.43C63.98 118.26 62.03 118.71 59.99 118.71ZM59.99 107.71C58.45 107.71 57.01 108.03 55.95 108.62C55.06 109.11 53.99 110.05 53.99 111.71C53.99 113.37 55.05 114.31 55.95 114.8C57.01 115.39 58.45 115.71 59.99 115.71C61.53 115.71 62.97 115.39 64.03 114.8C64.92 114.31 65.99 113.37 65.99 111.71C65.99 110.05 64.93 109.11 64.03 108.62C62.97 108.03 61.53 107.71 59.99 107.71Z" fill="#292B34"/>
<path d="M56.99 112.71C58.0946 112.71 58.99 111.815 58.99 110.71C58.99 109.605 58.0946 108.71 56.99 108.71C55.8854 108.71 54.99 109.605 54.99 110.71C54.99 111.815 55.8854 112.71 56.99 112.71Z" fill="#97ECFF"/>
<path d="M141.99 117.21C143.54 117.21 145.31 116.91 146.76 116.11C148.26 115.28 149.49 113.84 149.49 111.71C149.49 109.58 148.26 108.13 146.76 107.31C145.32 106.51 143.54 106.21 141.99 106.21C140.44 106.21 138.67 106.51 137.22 107.31C135.72 108.14 134.49 109.58 134.49 111.71C134.49 113.84 135.72 115.29 137.22 116.11C138.66 116.91 140.44 117.21 141.99 117.21Z" fill="#8BD5F9"/>
<path d="M141.99 118.71C139.95 118.71 137.99 118.25 136.5 117.43C134.27 116.2 132.99 114.12 132.99 111.71C132.99 109.3 134.27 107.22 136.5 105.99C138 105.16 139.95 104.71 141.99 104.71C144.03 104.71 145.99 105.17 147.48 105.99C149.71 107.22 150.99 109.3 150.99 111.71C150.99 114.12 149.71 116.2 147.48 117.43C145.98 118.26 144.03 118.71 141.99 118.71ZM141.99 107.71C140.45 107.71 139.01 108.03 137.95 108.62C137.06 109.11 135.99 110.05 135.99 111.71C135.99 113.37 137.06 114.31 137.95 114.8C139.01 115.39 140.45 115.71 141.99 115.71C143.53 115.71 144.97 115.39 146.03 114.8C146.92 114.31 147.99 113.37 147.99 111.71C147.99 110.05 146.92 109.11 146.03 108.62C144.97 108.03 143.53 107.71 141.99 107.71Z" fill="#292B34"/>
<path d="M144.99 112.71C146.095 112.71 146.99 111.815 146.99 110.71C146.99 109.605 146.095 108.71 144.99 108.71C143.885 108.71 142.99 109.605 142.99 110.71C142.99 111.815 143.885 112.71 144.99 112.71Z" fill="#97ECFF"/>
</g>
<defs>
<clipPath id="clip0_1_7">
<rect width="143.99" height="116.68" fill="white" transform="translate(28 42)"/>
</clipPath>
</defs>
</svg>
