<svg width="200" height="200" viewBox="0 0 200 200" fill="none" xmlns="http://www.w3.org/2000/svg">
<g clip-path="url(#clip0_1_2)">
<path d="M121.98 138C127.98 142 134.15 155 136.48 161C136.48 161 92.98 171.5 51.48 161C36.98 149 20.98 132.5 27.98 127C33.58 122.6 52.65 131.17 61.48 136C79.15 135 115.98 134 121.98 138Z" fill="#C6CCCC"/>
<path d="M136.48 162.5C135.88 162.5 135.31 162.14 135.08 161.54C132.34 154.48 126.36 142.72 121.15 139.24C116.55 136.17 87.02 136.05 61.57 137.49L61.14 137.51L60.76 137.3C48.33 130.5 32.95 124.98 28.91 128.16C28.16 128.75 27.8 129.5 27.79 130.53C27.72 135.96 37.17 147.19 52.44 159.83C53.08 160.36 53.17 161.3 52.64 161.94C52.11 162.58 51.16 162.67 50.53 162.14C42.75 155.7 24.67 139.73 24.79 130.49C24.81 128.57 25.6 126.95 27.06 125.8C34.35 120.07 57.67 132.22 61.83 134.46C66.67 134.19 81.5 133.46 96.13 133.61C118.48 133.84 121.75 136.02 122.82 136.74C130.63 141.94 137.59 159.69 137.89 160.44C138.19 161.21 137.81 162.08 137.04 162.38C136.86 162.45 136.68 162.48 136.5 162.48L136.48 162.5Z" fill="#292B34"/>
<path d="M165.43 95.91C164.86 112.35 156.7 123.91 143.81 131.25C130.84 138.64 113.03 141.77 93.32 141.09C73.61 140.4 56.06 136.03 43.64 127.76C31.29 119.53 23.96 107.44 24.53 90.99C25.1 74.55 33.26 62.99 46.15 55.65C59.12 48.26 76.93 45.13 96.64 45.81C116.35 46.5 133.9 50.87 146.32 59.14C158.67 67.37 166 79.46 165.42 95.9L165.43 95.91Z" fill="white"/>
<path d="M98.6 142.68C96.85 142.68 95.07 142.65 93.27 142.59C72.51 141.87 55.06 137.17 42.81 129C29.12 119.89 22.47 107.08 23.03 90.94C23.59 74.8 31.12 62.48 45.41 54.35C58.2 47.06 75.94 43.6 96.7 44.32C117.46 45.04 134.91 49.74 147.16 57.9C160.84 67.01 167.49 79.82 166.93 95.96C166.37 112.1 158.84 124.42 144.55 132.55C132.87 139.21 117.06 142.68 98.6 142.68ZM91.35 47.22C73.41 47.22 58.13 50.56 46.89 56.95C33.58 64.54 26.56 76.01 26.03 91.04C25.51 106.07 31.71 118.01 44.47 126.5C56.26 134.35 73.17 138.88 93.38 139.58C113.58 140.28 130.77 136.95 143.08 129.94C156.4 122.35 163.42 110.88 163.94 95.85C164.47 80.82 158.26 68.88 145.5 60.39C133.71 52.54 116.8 48.01 96.59 47.31C94.82 47.25 93.07 47.22 91.35 47.22Z" fill="#292B34"/>
<path fill-rule="evenodd" clip-rule="evenodd" d="M99.04 87.14C99.04 87.14 106.82 63.9 128.01 64.64C154.49 65.56 164.45 81.42 165.41 96.96L166.41 86.74C162.03 58.99 132.66 45.57 96.71 44.32C60.01 43.03 29.29 54.86 23.85 83.46L25.26 98.57C26.11 74.08 40.6 60.58 66.58 61.49C88.07 62.24 93.04 86.93 93.04 86.93L99.04 87.14Z" fill="#292B34"/>
<path d="M126.07 97.3C133.487 97.3 139.5 91.2872 139.5 83.87C139.5 76.4528 133.487 70.44 126.07 70.44C118.653 70.44 112.64 76.4528 112.64 83.87C112.64 91.2872 118.653 97.3 126.07 97.3Z" fill="white"/>
<path d="M126.08 98.8C125.9 98.8 125.72 98.8 125.55 98.8C121.57 98.66 117.87 96.98 115.16 94.06C112.44 91.14 111.02 87.34 111.16 83.36C111.3 79.38 112.98 75.68 115.9 72.96C118.82 70.24 122.61 68.82 126.6 68.96C130.58 69.1 134.28 70.78 136.99 73.7C139.71 76.62 141.13 80.42 140.99 84.4C140.85 88.38 139.17 92.08 136.25 94.8C133.46 97.4 129.87 98.81 126.08 98.81V98.8ZM126.06 71.95C123.03 71.95 120.16 73.08 117.94 75.15C115.61 77.32 114.27 80.27 114.15 83.46C114.03 86.65 115.17 89.68 117.35 92.01C119.53 94.34 122.47 95.68 125.66 95.8C128.83 95.91 131.88 94.78 134.21 92.6C136.54 90.43 137.88 87.48 138 84.29C138.12 81.1 136.98 78.07 134.8 75.74C132.63 73.41 129.68 72.07 126.49 71.95C126.35 71.95 126.21 71.95 126.06 71.95Z" fill="#292B34"/>
<path d="M129.5 84.13C131.709 84.13 133.5 82.3391 133.5 80.13C133.5 77.9209 131.709 76.13 129.5 76.13C127.291 76.13 125.5 77.9209 125.5 80.13C125.5 82.3391 127.291 84.13 129.5 84.13Z" fill="#292B34"/>
<path d="M67.3 95.29C74.7172 95.29 80.73 89.2772 80.73 81.86C80.73 74.4428 74.7172 68.43 67.3 68.43C59.8828 68.43 53.87 74.4428 53.87 81.86C53.87 89.2772 59.8828 95.29 67.3 95.29Z" fill="white"/>
<path d="M67.3 96.78C67.12 96.78 66.95 96.78 66.77 96.78C62.79 96.64 59.09 94.96 56.37 92.04C53.65 89.12 52.23 85.32 52.37 81.34C52.51 77.36 54.19 73.66 57.11 70.94C60.03 68.22 63.84 66.8 67.81 66.94C76.04 67.23 82.49 74.15 82.21 82.38C81.93 90.43 75.29 96.78 67.3 96.78ZM67.28 69.93C64.25 69.93 61.38 71.06 59.16 73.13C56.83 75.3 55.49 78.25 55.37 81.44C55.26 84.62 56.39 87.66 58.57 89.99C60.74 92.32 63.69 93.66 66.88 93.78C70.07 93.89 73.1 92.76 75.43 90.58C77.76 88.41 79.1 85.46 79.22 82.27C79.34 79.08 78.2 76.05 76.02 73.72C73.85 71.39 70.9 70.05 67.71 69.93C67.57 69.93 67.42 69.93 67.28 69.93Z" fill="#292B34"/>
<path d="M70.73 82.11C72.9391 82.11 74.73 80.3191 74.73 78.11C74.73 75.9009 72.9391 74.11 70.73 74.11C68.5209 74.11 66.73 75.9009 66.73 78.11C66.73 80.3191 68.5209 82.11 70.73 82.11Z" fill="#292B34"/>
<path d="M82.26 123.57L86.2 96.69L104.69 97.34L106.75 124.43L82.26 123.57Z" fill="#FFACC1"/>
<path d="M108.37 125.99L80.54 125.02L84.92 95.15L106.09 95.89L108.37 125.99ZM83.99 122.14L105.13 122.88L103.3 98.8L87.5 98.25L84 122.14H83.99Z" fill="#292B34"/>
<path d="M95.54 87.01C89.68 86.81 85.26 92.8 83.56 96.6C83.32 97.13 83.63 97.72 84.19 97.88L94.81 100.93C94.97 100.97 95.13 100.98 95.29 100.95L106.06 98.65C106.64 98.53 106.99 97.93 106.77 97.38C105.23 93.47 101.38 87.21 95.54 87.01Z" fill="#FDC507"/>
<path d="M95.09 102.48C94.86 102.48 94.63 102.45 94.4 102.38L83.77 99.32C83.08 99.12 82.51 98.64 82.2 97.99C81.91 97.36 81.9 96.63 82.19 95.99C83.98 91.99 88.81 85.28 95.59 85.51C101.66 85.72 106.06 91.5 108.17 96.83C108.43 97.5 108.39 98.24 108.05 98.87C107.71 99.51 107.1 99.97 106.38 100.12L95.61 102.42C95.44 102.46 95.26 102.47 95.09 102.47V102.48ZM85.22 96.62L95.11 99.46L105.13 97.32C103.36 93.22 99.9 88.66 95.49 88.51C90.64 88.34 86.81 93.43 85.22 96.61V96.62Z" fill="#292B34"/>
<path d="M106.9 124.43L81.77 123.55C81.05 123.52 80.56 124.23 80.93 124.84C82.65 127.7 86.88 131.73 94.45 131.99C102.1 132.26 106.14 128.44 107.68 125.69C108.01 125.11 107.56 124.44 106.89 124.42L106.9 124.43Z" fill="#FDC507"/>
<path d="M95.22 133.52C94.95 133.52 94.68 133.52 94.4 133.51C84.91 133.18 80.7 127.4 79.64 125.63C79.19 124.88 79.18 123.99 79.62 123.25C80.07 122.49 80.89 122.03 81.81 122.06L106.94 122.94C107.8 122.97 108.58 123.44 108.99 124.17C109.39 124.88 109.38 125.73 108.99 126.44C108.04 128.13 104.29 133.52 95.22 133.52ZM82.92 125.1C84.43 127.04 87.93 130.28 94.5 130.51C101.11 130.76 104.4 127.72 105.76 125.9L82.91 125.1H82.92Z" fill="#292B34"/>
<path d="M67.48 137.5C64.68 144.3 77.65 155.33 84.48 160L109.48 145C96.65 139.67 70.28 130.7 67.48 137.5Z" fill="#C6CCCC"/>
<path d="M84.48 161.5C84.19 161.5 83.89 161.42 83.64 161.24C81.93 160.08 76 155.86 71.26 150.55C66.37 145.08 64.64 140.5 66.1 136.93C66.58 135.76 67.52 134.88 68.88 134.31C78.02 130.52 106.81 142.26 110.06 143.61C110.83 143.93 111.19 144.81 110.87 145.57C110.55 146.34 109.67 146.7 108.91 146.38C93.69 140.06 75.45 134.83 70.03 137.08C69.13 137.45 68.94 137.92 68.88 138.07C66.67 143.44 77.8 153.61 85.34 158.76C86.02 159.23 86.2 160.16 85.73 160.84C85.44 161.27 84.97 161.49 84.49 161.49L84.48 161.5Z" fill="#292B34"/>
<path d="M142.84 35.5L139.48 46.41C144.93 48.23 157.86 54.72 165.91 66.13L175.98 59.84L174.32 59.17C170.39 57.6 168.09 53.51 168.78 49.33L168.85 48.92L166.6 49.12C162.31 49.49 158.35 46.77 157.17 42.63L156.69 40.96L154.97 41.56C151.05 42.93 146.71 41.45 144.45 37.97L142.85 35.5H142.84Z" fill="#FDF52F"/>
<path d="M165.91 67.63C165.56 67.63 165.21 67.51 164.92 67.26C164.3 66.71 164.23 65.77 164.78 65.14C166.64 63.02 169.92 61.1 172.35 59.87C169.09 57.95 167.09 54.36 167.16 50.58L166.72 50.62C161.73 51.07 157.09 47.87 155.71 43.04L155.67 42.89L155.45 42.97C151.18 44.47 146.5 43.07 143.75 39.58C143.25 41.95 142.34 44.93 140.71 47.27C140.24 47.95 139.3 48.11 138.62 47.64C137.94 47.16 137.78 46.23 138.25 45.55C140.9 41.76 141.33 35.47 141.34 35.41C141.38 34.76 141.83 34.22 142.46 34.05C143.08 33.89 143.75 34.14 144.1 34.68L145.7 37.15C147.59 40.06 151.19 41.29 154.47 40.14L156.19 39.54C156.58 39.4 157.01 39.43 157.38 39.62C157.75 39.81 158.02 40.14 158.13 40.54L158.61 42.21C159.6 45.66 162.91 47.93 166.47 47.62L168.72 47.42C169.18 47.38 169.64 47.56 169.95 47.9C170.26 48.24 170.4 48.71 170.33 49.17L170.26 49.58C169.69 53.03 171.63 56.48 174.87 57.77L176.54 58.44C177.11 58.67 177.48 59.21 177.48 59.82C177.48 60.43 177.12 60.98 176.55 61.21C176.48 61.24 169.71 64.05 167.04 67.1C166.74 67.44 166.33 67.61 165.91 67.61V67.63Z" fill="#292B34"/>
<path d="M47.44 104.93C44.18 99.82 42.01 95 42.01 95C42.01 95 35.43 103 35.03 107.74C34.57 113.17 37.26 117 42.01 117C46.76 117 51.51 111.32 47.44 104.93Z" fill="#8BD5F9"/>
<path d="M44.98 113C46.0846 113 46.98 111.657 46.98 110C46.98 108.343 46.0846 107 44.98 107C43.8754 107 42.98 108.343 42.98 110C42.98 111.657 43.8754 113 44.98 113Z" fill="#97ECFF"/>
</g>
<defs>
<clipPath id="clip0_1_2">
<rect width="154.48" height="131.67" fill="white" transform="translate(23 34)"/>
</clipPath>
</defs>
</svg>
