<svg width="185" height="185" viewBox="0 0 185 185" fill="none" xmlns="http://www.w3.org/2000/svg">
<g filter="url(#filter0_d_2_78)">
<path d="M152.705 77.4411C152.705 118.375 119.003 151.559 77.4303 151.559C35.8571 151.559 2.15543 118.375 2.15543 77.4411C2.15543 36.5072 35.8571 3.32366 77.4303 3.32366C119.003 3.32366 152.705 36.5072 152.705 77.4411Z" fill="#00B9FB"/>
<path d="M77.2339 151.782C17.913 150.981 2.41468 100.678 2.08066 75.6269H152.888C152.888 104.686 136.555 152.584 77.2339 151.782Z" fill="#FF5566"/>
<path d="M2.08066 75.6269C2.41468 100.678 17.913 150.981 77.2339 151.782C136.555 152.584 152.888 104.686 152.888 75.6269M2.08066 75.6269C29.1358 128.234 152.888 108.694 152.888 75.6269M2.08066 75.6269H152.888" stroke="#202020"/>
<ellipse cx="78.3204" cy="77.4411" rx="75.7603" ry="30.0483" fill="#36FF9A"/>
<circle cx="77.6808" cy="77.441" r="75.1175" stroke="#202020" stroke-width="4"/>
<path d="M152.801 77.4411C152.801 94.0363 119.169 107.489 77.6808 107.489C36.1928 107.489 2.56012 94.0363 2.56012 77.4411" stroke="#202020" stroke-width="3.5"/>
<path d="M14.5794 61.1308C18.5924 58.6518 23.4936 56.4243 29.1028 54.5203M41.6229 51.0743C46.3455 50.0388 51.3766 49.2003 56.647 48.5867M70.1687 47.5412C72.6395 47.4431 75.1455 47.3929 77.6808 47.3929C80.2161 47.3929 82.7221 47.4431 85.1929 47.5412M98.7146 48.5867C103.985 49.2003 109.016 50.0388 113.739 51.0743M126.76 54.6918C131.931 56.4783 136.486 58.5421 140.281 60.8255" stroke="#202020" stroke-width="3.5" stroke-linecap="round" stroke-linejoin="round"/>
<path d="M77.6808 2.32013C94.276 2.32013 107.729 35.9528 107.729 77.4408C107.729 118.929 94.276 152.561 77.6808 152.561" stroke="#202020" stroke-width="3.5"/>
<path d="M61.3704 140.542C58.8915 136.529 56.664 131.628 54.76 126.019M51.314 113.499C50.2784 108.776 49.44 103.745 48.8263 98.4746M47.7809 84.9529C47.6828 82.4821 47.6325 79.9761 47.6325 77.4408C47.6325 74.9055 47.6828 72.3995 47.7809 69.9287M48.8263 56.407C49.44 51.1366 50.2784 46.1055 51.314 41.3829M54.9315 28.362C56.718 23.1911 58.7818 18.6357 61.0651 14.8402" stroke="#202020" stroke-width="3.5" stroke-linecap="round" stroke-linejoin="round"/>
</g>
<defs>
<filter id="filter0_d_2_78" x="0.563354" y="0.323563" width="184.235" height="184.235" filterUnits="userSpaceOnUse" color-interpolation-filters="sRGB">
<feFlood flood-opacity="0" result="BackgroundImageFix"/>
<feColorMatrix in="SourceAlpha" type="matrix" values="0 0 0 0 0 0 0 0 0 0 0 0 0 0 0 0 0 0 127 0" result="hardAlpha"/>
<feOffset dx="30" dy="30"/>
<feComposite in2="hardAlpha" operator="out"/>
<feColorMatrix type="matrix" values="0 0 0 0 0 0 0 0 0 0 0 0 0 0 0 0 0 0 0.25 0"/>
<feBlend mode="normal" in2="BackgroundImageFix" result="effect1_dropShadow_2_78"/>
<feBlend mode="normal" in="SourceGraphic" in2="effect1_dropShadow_2_78" result="shape"/>
</filter>
</defs>
</svg>
