<svg width="205" height="204" viewBox="0 0 205 204" fill="none" xmlns="http://www.w3.org/2000/svg">
<g filter="url(#filter0_d_2_21)">
<path d="M142.947 171.044L171.909 37.6058L9.3334 142.044L142.947 171.044Z" fill="#FEDF46"/>
<path d="M171.909 37.6058L38.2952 8.60596L9.3334 142.044L171.909 37.6058Z" fill="#00B9FB"/>
<rect x="38.2174" y="8.30141" width="15.4603" height="15.4603" transform="rotate(12.2457 38.2174 8.30141)" fill="#36FF9A"/>
<rect x="130.452" y="153.013" width="16.0355" height="14.9707" transform="rotate(12.2457 130.452 153.013)" fill="#36FF9A"/>
<rect x="12.7752" y="127.472" width="14.766" height="14.9707" transform="rotate(12.2457 12.7752 127.472)" fill="#36FF9A"/>
<rect x="157.575" y="34.2071" width="14.7287" height="15.0387" transform="rotate(12.2457 157.575 34.2071)" fill="#36FF9A"/>
<rect x="38.5419" y="8.75468" width="136.452" height="136.452" transform="rotate(12.2457 38.5419 8.75468)" stroke="#202020" stroke-width="4" stroke-linejoin="round"/>
<mask id="path-7-inside-1_2_21" fill="white">
<rect x="37.0065" y="6.36807" width="19.0631" height="19.0631" rx="1" transform="rotate(12.2457 37.0065 6.36807)"/>
</mask>
<rect x="37.0065" y="6.36807" width="19.0631" height="19.0631" rx="1" transform="rotate(12.2457 37.0065 6.36807)" stroke="#202020" stroke-width="8" stroke-linejoin="round" mask="url(#path-7-inside-1_2_21)"/>
<mask id="path-8-inside-2_2_21" fill="white">
<rect x="129.896" y="150.758" width="19.0631" height="19.0631" rx="1" transform="rotate(12.2457 129.896 150.758)"/>
</mask>
<rect x="129.896" y="150.758" width="19.0631" height="19.0631" rx="1" transform="rotate(12.2457 129.896 150.758)" stroke="#202020" stroke-width="8" stroke-linejoin="round" mask="url(#path-8-inside-2_2_21)"/>
<mask id="path-9-inside-3_2_21" fill="white">
<rect x="155.646" y="32.118" width="19.0631" height="19.0631" rx="1" transform="rotate(12.2457 155.646 32.118)"/>
</mask>
<rect x="155.646" y="32.118" width="19.0631" height="19.0631" rx="1" transform="rotate(12.2457 155.646 32.118)" stroke="#202020" stroke-width="8" stroke-linejoin="round" mask="url(#path-9-inside-3_2_21)"/>
<mask id="path-10-inside-4_2_21" fill="white">
<rect x="11.2566" y="125.008" width="19.0631" height="19.0631" rx="1" transform="rotate(12.2457 11.2566 125.008)"/>
</mask>
<rect x="11.2566" y="125.008" width="19.0631" height="19.0631" rx="1" transform="rotate(12.2457 11.2566 125.008)" stroke="#202020" stroke-width="8" stroke-linejoin="round" mask="url(#path-10-inside-4_2_21)"/>
<path d="M106.705 16.3623L103.407 31.5599M77.9759 148.729L74.6773 163.927" stroke="#202020" stroke-width="4" stroke-linecap="round"/>
<path d="M164.473 106.158L149.276 102.86M32.1067 77.429L16.9091 74.1305" stroke="#202020" stroke-width="4" stroke-linecap="round"/>
<line x1="152.835" y1="49.8023" x2="28.5153" y2="129.78" stroke="#202020" stroke-width="4" stroke-linecap="round" stroke-dasharray="15 15"/>
</g>
<defs>
<filter id="filter0_d_2_21" x="0.895183" y="0.348358" width="209.592" height="209.592" filterUnits="userSpaceOnUse" color-interpolation-filters="sRGB">
<feFlood flood-opacity="0" result="BackgroundImageFix"/>
<feColorMatrix in="SourceAlpha" type="matrix" values="0 0 0 0 0 0 0 0 0 0 0 0 0 0 0 0 0 0 127 0" result="hardAlpha"/>
<feOffset dx="30" dy="30"/>
<feComposite in2="hardAlpha" operator="out"/>
<feColorMatrix type="matrix" values="0 0 0 0 0 0 0 0 0 0 0 0 0 0 0 0 0 0 0.25 0"/>
<feBlend mode="normal" in2="BackgroundImageFix" result="effect1_dropShadow_2_21"/>
<feBlend mode="normal" in="SourceGraphic" in2="effect1_dropShadow_2_21" result="shape"/>
</filter>
</defs>
</svg>
