<svg width="200" height="200" viewBox="0 0 200 200" fill="none" xmlns="http://www.w3.org/2000/svg">
<g clip-path="url(#clip0_1_3)">
<path d="M102.72 127.49C78.72 127.49 67.72 147.16 65.22 156.99C79.39 159.99 114.72 164.19 142.72 156.99C138.72 147.16 126.72 127.49 102.72 127.49Z" fill="#C6CCCC"/>
<path d="M142.72 158.49C142.13 158.49 141.57 158.14 141.33 157.56C130.55 131.05 109.05 128.99 102.72 128.99C79.91 128.99 69.17 147.55 66.67 157.36C66.47 158.16 65.65 158.65 64.85 158.44C64.05 158.24 63.56 157.42 63.77 156.62C66.46 146.03 78.07 125.99 102.72 125.99C124.11 125.99 138.12 141.71 144.11 156.42C144.42 157.19 144.05 158.06 143.29 158.38C143.1 158.46 142.91 158.49 142.73 158.49H142.72Z" fill="#292B34"/>
<path d="M174.54 86.53C175.69 102.94 168.79 115.29 156.73 123.94C144.6 132.64 127.22 137.62 107.54 139C87.86 140.38 69.96 137.86 56.73 130.93C43.59 124.04 35.04 112.78 33.89 96.36C32.74 79.95 39.64 67.6 51.7 58.95C63.83 50.25 81.21 45.27 100.89 43.89C120.57 42.51 138.48 45.03 151.7 51.96C164.84 58.85 173.39 70.11 174.54 86.52V86.53Z" fill="white"/>
<path d="M97.36 140.86C81.01 140.86 66.87 137.93 56.04 132.26C41.48 124.63 33.53 112.59 32.4 96.47C31.27 80.36 37.47 67.32 50.83 57.74C62.79 49.15 80.07 43.85 100.79 42.4C121.51 40.95 139.36 43.8 152.4 50.64C166.96 58.27 174.91 70.31 176.04 86.43C177.17 102.55 170.96 115.58 157.61 125.16C145.65 133.74 128.37 139.05 107.65 140.5C104.14 140.75 100.7 140.87 97.36 140.87V140.86ZM111.1 45.03C107.82 45.03 104.46 45.15 101 45.39C80.83 46.8 64.09 51.91 52.58 60.17C40.13 69.11 34.34 81.25 35.39 96.25C36.44 111.26 43.85 122.47 57.43 129.59C69.98 136.17 87.27 138.9 107.44 137.49C127.61 136.08 144.35 130.97 155.86 122.71C168.31 113.77 174.1 101.63 173.05 86.63C172 71.62 164.58 60.41 151.01 53.29C140.61 47.84 126.95 45.03 111.1 45.03Z" fill="#292B34"/>
<path fill-rule="evenodd" clip-rule="evenodd" d="M106.76 84.8C106.76 84.8 112.9 60.81 134.05 59.33C160.48 57.48 172.04 72.21 174.62 87.57L174.54 77.3C167.29 50.16 136.68 39.89 100.79 42.4C64.17 44.96 34.85 59.93 32.43 88.94L35.41 103.82C33.7 79.38 46.69 64.44 72.63 62.62C94.08 61.12 100.77 85.21 100.77 85.21L106.75 84.79L106.76 84.8Z" fill="#292B34"/>
<path d="M98.02 117.49L93.49 95.75L115.44 94.22L113.98 116.38L98.02 117.5V117.49Z" fill="#FFACC1"/>
<path d="M98.02 118.99C97.31 118.99 96.7 118.5 96.55 117.8L92.02 96.06C91.93 95.64 92.03 95.19 92.29 94.85C92.55 94.5 92.95 94.29 93.38 94.26L115.33 92.73C115.77 92.7 116.19 92.86 116.49 93.16C116.8 93.47 116.96 93.89 116.93 94.32L115.47 116.48C115.42 117.23 114.83 117.83 114.08 117.88L98.12 119C98.12 119 98.05 119 98.01 119L98.02 118.99ZM95.31 97.13L99.22 115.9L112.57 114.97L113.83 95.84L95.31 97.13Z" fill="#292B34"/>
<path d="M103.77 85.01C98.01 85.41 94.27 91.65 92.92 95.62C92.71 96.23 93.18 96.83 93.82 96.84L104.52 96.98C104.58 96.98 104.63 96.98 104.69 96.97L115.22 95.35C115.87 95.25 116.25 94.56 115.94 93.98C113.95 90.25 109.52 84.62 103.78 85.02L103.77 85.01Z" fill="#FDC507"/>
<path d="M104.54 98.48H104.5L93.8 98.34C93.01 98.33 92.26 97.94 91.81 97.3C91.36 96.67 91.25 95.88 91.5 95.14C92.89 91.04 97.02 83.98 103.67 83.52C109.66 83.1 114.6 88.29 117.26 93.27C117.63 93.96 117.64 94.79 117.29 95.49C116.93 96.2 116.24 96.7 115.45 96.83L104.92 98.45C104.8 98.47 104.67 98.48 104.54 98.48ZM94.62 95.35L104.55 95.48L114.22 93.98C112.88 91.7 109.06 86.13 103.88 86.5C99.16 86.83 95.97 91.9 94.62 95.34V95.35Z" fill="#292B34"/>
<path d="M114.47 113.33L97.24 114.54C96.55 114.59 96.1 115.32 96.38 115.95C97.6 118.66 99.77 122.38 106.33 121.92C112.97 121.46 114.79 117.36 115.49 114.51C115.65 113.87 115.12 113.29 114.47 113.33Z" fill="#FDC507"/>
<path d="M105.28 123.46C98.11 123.46 95.88 118.49 95.02 116.56C94.69 115.82 94.74 114.96 95.16 114.25C95.58 113.54 96.32 113.09 97.14 113.03L114.37 111.82C115.16 111.77 115.94 112.09 116.45 112.7C116.96 113.3 117.14 114.09 116.95 114.85C115.65 120.13 112.11 123.01 106.43 123.4C106.03 123.43 105.64 123.44 105.27 123.44L105.28 123.46ZM98.06 115.98C99.35 118.57 101.34 120.76 106.23 120.42C111.4 120.06 113.11 117.26 113.84 114.88L98.06 115.98Z" fill="#292B34"/>
<path d="M67.41 98.07C66.37 98.07 65.4 97.41 65.04 96.37C64.6 95.06 65.3 93.64 66.6 93.2C74.26 90.6 83.01 86.91 85.95 84.81C82.75 83.12 73.55 80.63 65.6 79.07C64.25 78.8 63.36 77.49 63.63 76.13C63.9 74.77 65.22 73.9 66.57 74.16C90.89 78.94 91.46 82.72 91.67 84.15C91.92 85.81 92.5 89.68 68.22 97.93C67.95 98.02 67.68 98.06 67.42 98.06L67.41 98.07Z" fill="#292B34"/>
<path d="M141.73 92.87C141.56 92.87 141.38 92.85 141.2 92.81C117.07 87.58 116.44 84.33 116.17 82.94C115.82 81.15 115.17 77.8 139.56 69.06C140.86 68.6 142.29 69.27 142.76 70.57C143.23 71.87 142.55 73.3 141.25 73.77C133.85 76.42 125.41 80.04 122.15 82.13C125.67 83.77 134.55 86.25 142.26 87.92C143.61 88.21 144.47 89.54 144.17 90.89C143.92 92.06 142.88 92.86 141.73 92.86V92.87Z" fill="#292B34"/>
<path d="M54.6347 113.508C60.1441 113.122 64.4229 110.13 64.1918 106.825C63.9606 103.519 59.307 101.151 53.7976 101.537C48.2882 101.922 44.0093 104.914 44.2405 108.22C44.4717 111.525 49.1253 113.893 54.6347 113.508Z" fill="#FFACC1"/>
<path d="M156.391 106.397C161.9 106.012 166.179 103.02 165.948 99.7142C165.717 96.4085 161.063 94.0411 155.554 94.4263C150.044 94.8116 145.766 97.8036 145.997 101.109C146.228 104.415 150.881 106.782 156.391 106.397Z" fill="#FFACC1"/>
<path d="M139.63 103.15C134.51 110.49 139.1 122.51 142.03 127.6H151.63C155.63 117.67 156.43 108.5 154.83 103.15C153.23 97.8 146.03 93.98 139.63 103.15Z" fill="#C6CCCC"/>
<path d="M152.64 129.1H141.16L140.73 128.35C137.52 122.78 132.91 110.16 138.4 102.29C142.67 96.18 147 95.86 149.21 96.21C152.47 96.73 155.24 99.29 156.27 102.72C158.11 108.87 156.87 118.62 153.02 128.16L152.64 129.1ZM142.91 126.1H150.61C153.87 117.59 154.97 108.83 153.4 103.58C152.71 101.28 150.84 99.52 148.74 99.18C146.14 98.76 143.34 100.48 140.87 104.01C136.75 109.91 139.72 120.14 142.92 126.1H142.91Z" fill="#292B34"/>
<path d="M127.22 134.11C127.22 125.67 134.38 121.89 143.22 121.89C156.02 121.89 159.22 128.73 159.22 137.17V146.34C159.22 154.78 155.26 161.62 146.42 161.62C137.58 161.62 128.82 156.31 128.82 147.87L127.22 134.12V134.11Z" fill="#C6CCCC"/>
<path d="M146.42 163.12C137.06 163.12 127.38 157.45 127.32 147.96L125.72 134.12C125.72 125.65 132.43 120.4 143.22 120.4C155 120.4 160.72 125.89 160.72 137.18V146.35C160.72 156.7 155.24 163.13 146.42 163.13V163.12ZM128.72 134.03L130.32 147.87C130.32 155.54 138.51 160.12 146.42 160.12C149.07 160.12 157.72 159.13 157.72 146.34V137.17C157.72 130.75 156.07 123.39 143.22 123.39C139.83 123.39 128.78 124.16 128.72 134.03Z" fill="#292B34"/>
<path d="M128.21 140.99C127.47 140.99 126.83 140.45 126.73 139.69C126.62 138.87 127.19 138.11 128.01 138L139.01 136.5C139.84 136.38 140.59 136.96 140.7 137.78C140.81 138.6 140.24 139.36 139.42 139.47L128.42 140.97C128.35 140.97 128.28 140.98 128.21 140.98V140.99Z" fill="#292B34"/>
<path d="M32.46 39.64C32.29 38.97 31.69 38.5 31.01 38.5C30.33 38.5 29.72 38.97 29.55 39.64L27.89 46.25C27.35 48.39 25.77 50.11 23.68 50.82L18.51 52.58C17.9 52.79 17.49 53.36 17.49 54C17.49 54.64 17.9 55.21 18.51 55.42L23.68 57.18C25.77 57.89 27.35 59.61 27.89 61.75L29.55 68.36C29.72 69.03 30.32 69.5 31.01 69.5C31.7 69.5 32.3 69.03 32.46 68.36L34.12 61.75C34.66 59.61 36.24 57.89 38.33 57.18L43.5 55.42C44.11 55.21 44.52 54.64 44.52 54C44.52 53.36 44.11 52.79 43.5 52.58L38.33 50.82C36.24 50.11 34.66 48.39 34.12 46.25L32.46 39.64Z" fill="#FDF52F"/>
<path d="M31 71C29.62 71 28.43 70.07 28.09 68.73L26.43 62.12C26.02 60.47 24.81 59.15 23.19 58.6L18.02 56.84C16.81 56.43 15.99 55.29 15.99 54C15.99 52.71 16.81 51.58 18.02 51.16L23.19 49.4C24.8 48.85 26.01 47.54 26.43 45.88L28.09 39.27C28.43 37.93 29.62 37 31 37C32.38 37 33.57 37.93 33.91 39.27L35.57 45.88C35.98 47.53 37.19 48.85 38.81 49.4L43.98 51.16C45.2 51.58 46.01 52.72 46.01 54C46.01 55.28 45.19 56.42 43.98 56.84L38.81 58.6C37.2 59.15 35.99 60.46 35.57 62.12L33.91 68.73C33.57 70.07 32.38 71 31 71ZM31 40L29.34 46.61C28.68 49.25 26.74 51.36 24.16 52.24L18.99 54L24.16 55.76C26.74 56.64 28.67 58.74 29.34 61.39L31 68L32.66 61.39C33.32 58.75 35.26 56.64 37.84 55.76L43.01 54L37.84 52.24C35.26 51.36 33.33 49.26 32.66 46.61L31 40Z" fill="#292B34"/>
<path d="M139.63 103.15C134.51 110.49 139.1 122.51 142.03 127.6H151.63C155.63 117.67 156.43 108.5 154.83 103.15C153.23 97.8 146.03 93.98 139.63 103.15Z" fill="#C6CCCC"/>
<path d="M152.64 129.1H141.16L140.73 128.35C137.52 122.78 132.91 110.16 138.4 102.29C142.67 96.18 147 95.86 149.21 96.21C152.47 96.73 155.24 99.29 156.27 102.72C158.11 108.87 156.87 118.62 153.02 128.16L152.64 129.1ZM142.91 126.1H150.61C153.87 117.59 154.97 108.83 153.4 103.58C152.71 101.28 150.84 99.52 148.74 99.18C146.14 98.76 143.34 100.48 140.87 104.01C136.75 109.91 139.72 120.14 142.92 126.1H142.91Z" fill="#292B34"/>
<path d="M127.22 134.11C127.22 125.67 134.38 121.89 143.22 121.89C156.02 121.89 159.22 128.73 159.22 137.17V146.34C159.22 154.78 155.26 161.62 146.42 161.62C137.58 161.62 128.82 156.31 128.82 147.87L127.22 134.12V134.11Z" fill="#C6CCCC"/>
<path d="M146.42 163.12C137.06 163.12 127.38 157.45 127.32 147.96L125.72 134.12C125.72 125.65 132.43 120.4 143.22 120.4C155 120.4 160.72 125.89 160.72 137.18V146.35C160.72 156.7 155.24 163.13 146.42 163.13V163.12ZM128.72 134.03L130.32 147.87C130.32 155.54 138.51 160.12 146.42 160.12C149.07 160.12 157.72 159.13 157.72 146.34V137.17C157.72 130.75 156.07 123.39 143.22 123.39C139.83 123.39 128.78 124.16 128.72 134.03Z" fill="#292B34"/>
<path d="M128.21 140.99C127.47 140.99 126.83 140.45 126.73 139.69C126.62 138.87 127.19 138.11 128.01 138L139.01 136.5C139.84 136.38 140.59 136.96 140.7 137.78C140.81 138.6 140.24 139.36 139.42 139.47L128.42 140.97C128.35 140.97 128.28 140.98 128.21 140.98V140.99Z" fill="#292B34"/>
</g>
<defs>
<clipPath id="clip0_1_3">
<rect width="160.17" height="126.12" fill="white" transform="translate(16 37)"/>
</clipPath>
</defs>
</svg>
