<svg width="200" height="200" viewBox="0 0 200 200" fill="none" xmlns="http://www.w3.org/2000/svg">
<g clip-path="url(#clip0_1_5)">
<path d="M97.82 122.35C73.82 122.35 62.82 142.02 60.32 151.85C74.49 154.85 109.82 159.05 137.82 151.85C133.82 142.02 121.82 122.35 97.82 122.35Z" fill="#C6CCCC"/>
<path d="M137.82 153.35C137.23 153.35 136.67 153 136.43 152.42C125.65 125.91 104.15 123.85 97.82 123.85C75.01 123.85 64.27 142.41 61.77 152.22C61.57 153.02 60.75 153.51 59.95 153.3C59.15 153.1 58.66 152.28 58.87 151.48C61.56 140.89 73.17 120.85 97.82 120.85C119.21 120.85 133.22 136.57 139.21 151.28C139.52 152.05 139.15 152.92 138.39 153.24C138.2 153.32 138.01 153.35 137.83 153.35H137.82Z" fill="#292B34"/>
<path d="M170.37 90C169.51 106.43 161.16 117.84 148.14 124.96C135.04 132.12 117.18 134.95 97.48 133.91C77.78 132.88 60.31 128.2 48.04 119.71C35.83 111.27 28.71 99.05 29.57 82.62C30.43 66.19 38.78 54.78 51.8 47.66C64.9 40.5 82.77 37.67 102.46 38.71C122.16 39.74 139.63 44.42 151.9 52.91C164.1 61.35 171.22 73.57 170.36 90H170.37Z" fill="white"/>
<path d="M105.25 135.62C102.68 135.62 100.07 135.55 97.4 135.41C76.66 134.32 59.29 129.32 47.18 120.95C33.66 111.59 27.23 98.67 28.07 82.54C28.92 66.41 36.66 54.23 51.09 46.35C64.01 39.28 81.81 36.12 102.54 37.21C123.28 38.3 140.65 43.3 152.76 51.67C166.28 61.02 172.71 73.94 171.86 90.07C171.02 106.2 163.27 118.38 148.85 126.27C137.59 132.42 122.63 135.61 105.24 135.61L105.25 135.62ZM94.67 40C77.8 40 63.35 43.06 52.53 48.98C39.08 56.33 31.86 67.68 31.07 82.7C30.28 97.72 36.28 109.76 48.88 118.48C60.53 126.54 77.36 131.36 97.55 132.42C117.73 133.48 134.98 130.44 147.41 123.65C160.86 116.3 168.08 104.95 168.87 89.93C169.66 74.91 163.66 62.87 151.06 54.15C139.41 46.09 122.58 41.27 102.39 40.21C99.77 40.07 97.19 40 94.67 40Z" fill="#292B34"/>
<path fill-rule="evenodd" clip-rule="evenodd" d="M103.09 84.02C103.09 84.02 112.11 60.96 133.28 62.07C159.74 63.46 169.42 79.49 170.11 95.04L171.63 81.88C168.31 53.36 138.91 39.12 102.54 37.21C65.06 35.24 33.57 47.09 28.66 77.03L29.96 94.2C31.24 69.73 45.96 56.49 71.92 57.85C93.39 58.98 97.1 83.7 97.1 83.7L103.09 84.01V84.02Z" fill="#292B34"/>
<path d="M131.19 95.2C138.607 95.2 144.62 89.1872 144.62 81.77C144.62 74.3528 138.607 68.34 131.19 68.34C123.773 68.34 117.76 74.3528 117.76 81.77C117.76 89.1872 123.773 95.2 131.19 95.2Z" fill="white"/>
<path d="M131.21 96.7C130.94 96.7 130.68 96.7 130.41 96.68C122.19 96.25 115.86 89.21 116.29 80.99C116.5 77.01 118.25 73.35 121.21 70.68C124.17 68.01 128.01 66.67 131.98 66.87C140.2 67.3 146.54 74.34 146.1 82.56C145.89 86.54 144.14 90.2 141.18 92.87C138.42 95.36 134.9 96.7 131.21 96.7ZM131.18 69.85C128.23 69.85 125.42 70.93 123.22 72.91C120.85 75.04 119.46 77.97 119.29 81.15C118.95 87.72 124.01 93.34 130.57 93.68C133.75 93.85 136.81 92.77 139.17 90.63C141.54 88.5 142.93 85.57 143.1 82.39C143.44 75.82 138.38 70.2 131.81 69.86C131.6 69.85 131.38 69.84 131.17 69.84L131.18 69.85Z" fill="#292B34"/>
<path d="M132.62 82.59C132.46 85.62 129.87 87.95 126.84 87.79C123.81 87.63 121.48 85.04 121.64 82.01C121.8 78.98 124.2 80.11 127.24 80.27C130.27 80.43 132.78 79.56 132.63 82.59H132.62Z" fill="#292B34"/>
<path d="M118.625 78.3197L118.468 81.3156L144.432 82.6763L144.589 79.6804L118.625 78.3197Z" fill="#292B34"/>
<path d="M72.47 92.16C79.8872 92.16 85.9 86.1472 85.9 78.73C85.9 71.3128 79.8872 65.3 72.47 65.3C65.0528 65.3 59.04 71.3128 59.04 78.73C59.04 86.1472 65.0528 92.16 72.47 92.16Z" fill="white"/>
<path d="M72.47 93.66C72.21 93.66 71.95 93.66 71.68 93.64C67.7 93.43 64.04 91.68 61.37 88.72C58.7 85.76 57.35 81.93 57.56 77.95C57.77 73.97 59.52 70.31 62.48 67.64C65.44 64.97 69.27 63.62 73.25 63.83C77.23 64.04 80.89 65.79 83.56 68.75C86.23 71.71 87.58 75.54 87.37 79.52C86.95 87.47 80.35 93.66 72.47 93.66ZM72.45 66.81C66.16 66.81 60.88 71.76 60.55 78.11C60.38 81.29 61.47 84.35 63.6 86.71C65.73 89.08 68.66 90.47 71.84 90.64C78.39 90.99 84.03 85.92 84.37 79.35C84.54 76.17 83.45 73.11 81.32 70.75C79.19 68.38 76.26 66.99 73.08 66.82C72.87 66.81 72.66 66.8 72.45 66.8V66.81Z" fill="#292B34"/>
<path d="M73.7 79.5C73.54 82.53 70.95 84.86 67.92 84.7C64.89 84.54 62.56 81.95 62.72 78.92C62.88 75.89 65.29 77.02 68.32 77.18C71.35 77.34 73.86 76.47 73.71 79.5H73.7Z" fill="#292B34"/>
<path d="M59.7157 75.2377L59.5587 78.2336L85.523 79.5943L85.68 76.5985L59.7157 75.2377Z" fill="#292B34"/>
<path d="M89.59 93.32L109.56 94.37L108.04 104.3L90.06 103.36L89.58 93.32H89.59Z" fill="#FFACC1"/>
<path d="M108.04 105.8C108.04 105.8 107.99 105.8 107.96 105.8L89.98 104.86C89.21 104.82 88.6 104.2 88.56 103.43L88.08 93.39C88.06 92.97 88.22 92.55 88.52 92.26C88.82 91.96 89.23 91.8 89.66 91.83L109.63 92.88C110.05 92.9 110.45 93.1 110.71 93.43C110.97 93.76 111.09 94.18 111.03 94.6L109.51 104.53C109.4 105.27 108.76 105.8 108.03 105.8H108.04ZM91.5 101.93L106.76 102.73L107.83 95.78L91.17 94.91L91.5 101.94V101.93Z" fill="#292B34"/>
<path d="M108.93 104.3L89.77 103.29C89.06 103.25 88.53 103.95 88.76 104.62C89.74 107.47 91.65 111.4 98.84 111.78C106.13 112.16 108.65 108.35 109.79 105.61C110.05 105 109.59 104.33 108.93 104.3Z" fill="#FDC507"/>
<path d="M99.84 113.31C99.49 113.31 99.13 113.31 98.76 113.28C90.01 112.82 88.07 107.22 87.34 105.11C87.07 104.33 87.21 103.46 87.71 102.79C88.22 102.12 89.02 101.75 89.85 101.79L109.01 102.79C109.82 102.83 110.56 103.26 110.99 103.95C111.41 104.62 111.48 105.45 111.18 106.18C109.21 110.91 105.4 113.3 99.84 113.3V113.31ZM90.43 104.83C91.51 107.57 93.45 110 98.91 110.28C104.71 110.59 106.95 108.03 108.07 105.75L90.42 104.83H90.43Z" fill="#292B34"/>
<path d="M100.26 84.82C94.55 84.52 90.1 90.16 88.25 93.93C87.95 94.54 88.39 95.22 89.07 95.25L99.69 95.81L110.25 96.36C110.94 96.4 111.46 95.74 111.2 95.09C109.65 91.14 105.96 85.12 100.26 84.82Z" fill="#FDC507"/>
<path d="M110.3 97.86C110.3 97.86 110.21 97.86 110.17 97.86L88.99 96.75C88.15 96.71 87.4 96.25 86.99 95.54C86.58 94.84 86.55 94 86.91 93.27C89.26 88.48 94.2 83 100.35 83.33C106.27 83.64 110.56 89.33 112.6 94.55C112.9 95.32 112.79 96.18 112.31 96.85C111.84 97.5 111.1 97.87 110.3 97.87V97.86ZM90.01 93.8L109.46 94.82C108.37 92.37 105.26 86.59 100.19 86.32C95.57 86.08 91.81 90.59 90.02 93.8H90.01Z" fill="#292B34"/>
<path d="M141.9 166.94C147.02 159.6 142.43 147.58 139.5 142.49H129.9C125.9 152.42 125.1 161.59 126.7 166.94C128.3 172.29 135.5 176.11 141.9 166.94Z" fill="#C6CCCC"/>
<path d="M133.56 173.97C133.1 173.97 132.68 173.93 132.32 173.87C129.06 173.35 126.29 170.79 125.26 167.37C123.42 161.22 124.66 151.47 128.51 141.93L128.89 140.99H140.37L140.8 141.74C144.01 147.31 148.63 159.93 143.13 167.8C139.56 172.92 135.94 173.97 133.56 173.97ZM130.92 143.99C127.66 152.5 126.56 161.26 128.13 166.51C128.82 168.8 130.69 170.57 132.79 170.91C135.39 171.33 138.19 169.61 140.66 166.08C144.78 160.18 141.81 149.94 138.61 143.99H130.91H130.92Z" fill="#292B34"/>
<path d="M154.32 135.98C154.32 144.42 147.16 148.2 138.32 148.2C125.52 148.2 122.32 141.36 122.32 132.92V123.75C122.32 115.31 126.28 108.47 135.12 108.47C143.96 108.47 152.72 113.78 152.72 122.22L154.32 135.97V135.98Z" fill="#C6CCCC"/>
<path d="M138.32 149.7C126.54 149.7 120.82 144.21 120.82 132.92V123.75C120.82 113.4 126.3 106.97 135.12 106.97C144.48 106.97 154.16 112.64 154.22 122.13L155.82 135.97C155.82 144.44 149.11 149.7 138.32 149.7ZM135.12 109.97C132.47 109.97 123.82 110.96 123.82 123.75V132.92C123.82 139.34 125.47 146.7 138.32 146.7C141.71 146.7 152.76 145.93 152.82 136.06L151.22 122.22C151.22 114.55 143.03 109.97 135.12 109.97Z" fill="#292B34"/>
<path d="M142.32 133.59C141.58 133.59 140.94 133.05 140.84 132.29C140.73 131.47 141.3 130.71 142.12 130.6L153.12 129.1C153.94 128.98 154.7 129.56 154.81 130.38C154.92 131.2 154.35 131.96 153.53 132.07L142.53 133.57C142.46 133.57 142.39 133.58 142.32 133.58V133.59Z" fill="#292B34"/>
</g>
<defs>
<clipPath id="clip0_1_5">
<rect width="143.94" height="136.97" fill="white" transform="translate(28 37)"/>
</clipPath>
</defs>
</svg>
