<svg width="186" height="184" viewBox="0 0 186 184" fill="none" xmlns="http://www.w3.org/2000/svg">
<g filter="url(#filter0_d_2_124)">
<rect x="3.63951" y="76.7286" width="105.831" height="75.0047" fill="#EE66BB"/>
<rect x="3.30461" y="1.70929" width="106.166" height="75.2168" fill="#FEDF46"/>
<path d="M123.289 16.9646H108.443V76.9261V151.733L130.615 76.9261L141.701 39.5225L152.787 2.11888H123.289V16.9646Z" fill="#9556EB"/>
<path d="M108.443 2.11888V16.9646H123.289V2.11888H108.443Z" fill="#36FF9A"/>
<path d="M108.443 2.11888V16.9646M108.443 2.11888H123.289M108.443 2.11888H2.78745V76.9261M108.443 151.733L130.615 76.9261M108.443 151.733V76.9261M108.443 151.733H2.78745V76.9261M108.443 16.9646H123.289V2.11888M108.443 16.9646V76.9261M123.289 2.11888H152.787L141.701 39.5225L130.615 76.9261M130.615 76.9261H122.132M108.443 76.9261H89.7412M76.0522 76.9261H57.9288M43.4687 76.9261H25.7309M11.6564 76.9261H2.78745" stroke="#202020" stroke-width="4" stroke-linecap="round"/>
</g>
<defs>
<filter id="filter0_d_2_124" x="0.787445" y="0.118879" width="184.679" height="183.614" filterUnits="userSpaceOnUse" color-interpolation-filters="sRGB">
<feFlood flood-opacity="0" result="BackgroundImageFix"/>
<feColorMatrix in="SourceAlpha" type="matrix" values="0 0 0 0 0 0 0 0 0 0 0 0 0 0 0 0 0 0 127 0" result="hardAlpha"/>
<feOffset dx="30" dy="30"/>
<feComposite in2="hardAlpha" operator="out"/>
<feColorMatrix type="matrix" values="0 0 0 0 0 0 0 0 0 0 0 0 0 0 0 0 0 0 0.25 0"/>
<feBlend mode="normal" in2="BackgroundImageFix" result="effect1_dropShadow_2_124"/>
<feBlend mode="normal" in="SourceGraphic" in2="effect1_dropShadow_2_124" result="shape"/>
</filter>
</defs>
</svg>
