<svg width="222" height="224" viewBox="0 0 222 224" fill="none" xmlns="http://www.w3.org/2000/svg">
<g filter="url(#filter0_d_2_36)">
<rect x="140.563" y="173.642" width="13.3544" height="15.1083" transform="rotate(15.9453 140.563 173.642)" fill="#EE66BB"/>
<path d="M12.8277 154.58L55.0683 165.678C56.0955 165.947 57.1067 165.191 57.1383 164.13C57.5047 151.845 57.8683 139.062 52.9653 127.792C52.2086 126.053 51.4543 125.044 50.7825 125.417L11.888 147.222C8.74997 148.982 9.34823 153.666 12.8277 154.58Z" fill="#FEDF46"/>
<path d="M147.874 77.7007C146.637 75.6518 147.589 72.8542 149.683 71.6948C158.722 66.6893 179.724 54.2817 185.375 50.9368C186.296 50.3916 187.396 50.2087 188.383 50.623C190.191 51.3818 191.082 52.441 190.209 53.5562C189.559 54.3873 188.759 55.1394 188.469 56.1543L176.871 96.7481C176.579 97.7682 175.821 98.3754 174.791 98.1223C171.374 97.2827 163.445 94.3475 158.433 89.7995C153.442 85.2711 150.568 82.1626 147.874 77.7007Z" fill="#9556EB"/>
<path d="M186.923 49.9706C188.481 49.1057 190.307 50.556 189.817 52.2691L150.438 190.097C150.135 191.159 149.028 191.774 147.966 191.47L10.138 152.091C8.42491 151.602 8.15818 149.285 9.71534 148.42L186.923 49.9706Z" stroke="#202020" stroke-width="4"/>
<path d="M145.366 74.006C148.682 79.9754 153.142 85.2332 158.49 89.4791C163.838 93.7249 169.971 96.8758 176.537 98.7518" stroke="#202020" stroke-width="4" stroke-linecap="round" stroke-linejoin="round" stroke-dasharray="15 10"/>
<path d="M51.0288 124.798C57.8552 137.085 59.5209 151.581 55.6593 165.097" stroke="#202020" stroke-width="4" stroke-linecap="round" stroke-linejoin="round" stroke-dasharray="15 9"/>
<path d="M185.952 48.2226C189.067 46.492 192.719 49.3917 191.74 52.8182L152.361 190.646C151.754 192.77 149.54 194 147.416 193.393L9.58823 154.014C6.16172 153.035 5.62937 148.402 8.74453 146.671L185.952 48.2226Z" fill="#00B9FB"/>
<path d="M186.923 49.9706C188.481 49.1057 190.307 50.556 189.817 52.2691L150.438 190.097C150.135 191.159 149.028 191.774 147.966 191.47L10.138 152.091C8.42491 151.602 8.15818 149.285 9.71534 148.42L186.923 49.9706Z" stroke="#202020" stroke-width="4"/>
<path d="M12.8277 154.58L55.0683 165.678C56.0955 165.947 57.1067 165.191 57.1383 164.13C57.5047 151.845 57.8683 139.062 52.9653 127.792C52.2086 126.053 51.4543 125.044 50.7825 125.417L11.888 147.222C8.74997 148.982 9.34823 153.666 12.8277 154.58Z" fill="#FEDF46"/>
<path d="M147.874 77.7007C146.637 75.6518 147.589 72.8542 149.683 71.6948C158.722 66.6893 179.724 54.2817 185.375 50.9368C186.296 50.3916 187.396 50.2087 188.383 50.623C190.191 51.3818 191.082 52.441 190.209 53.5562C189.559 54.3873 188.759 55.1394 188.469 56.1543L176.871 96.7481C176.579 97.7682 175.821 98.3754 174.791 98.1223C171.374 97.2827 163.445 94.3475 158.433 89.7995C153.442 85.2711 150.568 82.1626 147.874 77.7007Z" fill="#9556EB"/>
<rect x="140.548" y="173.751" width="14" height="15" rx="2" transform="rotate(15.9453 140.548 173.751)" fill="#EE66BB"/>
<path d="M145.366 74.006C148.682 79.9754 153.142 85.2332 158.49 89.4791C163.838 93.7249 169.971 96.8758 176.537 98.7518" stroke="#202020" stroke-width="4" stroke-linecap="round" stroke-linejoin="round" stroke-dasharray="15 10"/>
<path d="M51.0288 124.798C57.8552 137.085 59.5209 151.581 55.6593 165.097" stroke="#202020" stroke-width="4" stroke-linecap="round" stroke-linejoin="round" stroke-dasharray="15 9"/>
<rect x="140.548" y="173.751" width="14" height="15" rx="2" transform="rotate(15.9453 140.548 173.751)" stroke="#202020" stroke-width="4"/>
<path d="M186.923 49.9706C188.481 49.1057 190.307 50.556 189.817 52.2691L150.438 190.097C150.135 191.159 149.028 191.774 147.966 191.47L10.138 152.091C8.42491 151.602 8.15818 149.285 9.71534 148.42L186.923 49.9706Z" stroke="#202020" stroke-width="4"/>
</g>
<defs>
<filter id="filter0_d_2_36" x="0.302933" y="0.401764" width="224.09" height="224.09" filterUnits="userSpaceOnUse" color-interpolation-filters="sRGB">
<feFlood flood-opacity="0" result="BackgroundImageFix"/>
<feColorMatrix in="SourceAlpha" type="matrix" values="0 0 0 0 0 0 0 0 0 0 0 0 0 0 0 0 0 0 127 0" result="hardAlpha"/>
<feOffset dx="30" dy="30"/>
<feComposite in2="hardAlpha" operator="out"/>
<feColorMatrix type="matrix" values="0 0 0 0 0 0 0 0 0 0 0 0 0 0 0 0 0 0 0.25 0"/>
<feBlend mode="normal" in2="BackgroundImageFix" result="effect1_dropShadow_2_36"/>
<feBlend mode="normal" in="SourceGraphic" in2="effect1_dropShadow_2_36" result="shape"/>
</filter>
</defs>
</svg>
