<svg width="200" height="200" viewBox="0 0 200 200" fill="none" xmlns="http://www.w3.org/2000/svg">
<g clip-path="url(#clip0_1_6)">
<path d="M98.9 126.21C77.84 126.21 68.19 145.88 66 155.71C78.43 158.71 109.43 162.91 134 155.71C130.49 145.88 119.96 126.21 98.9 126.21Z" fill="#C6CCCC"/>
<path d="M133.99 157.21C133.37 157.21 132.8 156.83 132.58 156.21C123.14 129.76 104.41 127.71 98.9 127.71C79.03 127.71 69.65 146.24 67.46 156.04C67.28 156.85 66.48 157.36 65.67 157.18C64.86 157 64.35 156.2 64.53 155.39C66.9 144.78 77.12 124.72 98.9 124.72C117.79 124.72 130.15 140.47 135.41 155.22C135.69 156 135.28 156.86 134.5 157.14C134.33 157.2 134.16 157.23 134 157.23L133.99 157.21Z" fill="#292B34"/>
<path d="M170.49 90.17C170.49 106.62 162.75 118.45 150.12 126.24C137.41 134.08 119.72 137.83 100 137.83C80.28 137.83 62.59 134.07 49.88 126.24C37.25 118.45 29.5 106.62 29.5 90.17C29.5 73.72 37.25 61.88 49.87 54.09C62.58 46.26 80.27 42.5 99.99 42.5C119.71 42.5 137.4 46.26 150.11 54.09C162.74 61.88 170.48 73.71 170.48 90.16L170.49 90.17Z" fill="white"/>
<path d="M99.99 139.33C79.22 139.33 61.62 135.24 49.08 127.51C35.09 118.89 28 106.32 28 90.17C28 74.02 35.09 61.45 49.09 52.82C61.62 45.09 79.22 41 99.99 41C120.76 41 138.36 45.09 150.9 52.82C164.89 61.45 171.99 74.02 171.99 90.17C171.99 106.32 164.9 118.89 150.9 127.52C138.37 135.25 120.76 139.34 99.99 139.34V139.33ZM99.99 44C79.78 44 62.72 47.93 50.66 55.37C37.62 63.42 31 75.12 31 90.17C31 105.22 37.62 116.92 50.66 124.97C62.72 132.41 79.78 136.34 99.99 136.34C120.2 136.34 137.26 132.41 149.32 124.97C162.37 116.92 168.98 105.21 168.98 90.17C168.98 75.13 162.36 63.42 149.32 55.37C137.26 47.93 120.2 44 99.99 44Z" fill="#292B34"/>
<path fill-rule="evenodd" clip-rule="evenodd" d="M102.99 87.71C102.99 87.71 110.79 64.21 131.99 64.21C158.49 64.21 168.99 79.71 170.49 95.21L171.32 81.98C166.52 53.69 136.42 41 99.99 41C63.56 41 31.63 54.48 28.3 84.63L30.5 101.71C30.5 77.21 44.5 63.21 70.5 63.21C92 63.21 97 87.71 97 87.71H103H102.99Z" fill="#292B34"/>
<path d="M130.93 97.43C138.347 97.43 144.36 91.4172 144.36 84C144.36 76.5828 138.347 70.57 130.93 70.57C123.513 70.57 117.5 76.5828 117.5 84C117.5 91.4172 123.513 97.43 130.93 97.43Z" fill="white"/>
<path d="M130.94 98.93C122.71 98.93 116.01 92.23 116.01 84C116.01 75.77 122.71 69.07 130.94 69.07C139.17 69.07 145.86 75.77 145.86 84C145.86 92.23 139.16 98.93 130.94 98.93ZM130.94 72.08C124.36 72.08 119.01 77.43 119.01 84.01C119.01 90.59 124.36 95.94 130.94 95.94C137.52 95.94 142.86 90.59 142.86 84.01C142.86 77.43 137.51 72.08 130.94 72.08Z" fill="#292B34"/>
<path d="M136.4 84.74C136.4 87.78 133.94 90.24 130.9 90.24C127.86 90.24 125.4 87.78 125.4 84.74C125.4 81.7 127.86 82.71 130.9 82.71C133.94 82.71 136.4 81.71 136.4 84.74Z" fill="#292B34"/>
<path d="M144.21 81.21H118.21V84.21H144.21V81.21Z" fill="#292B34"/>
<path d="M72.13 97.47C79.5471 97.47 85.56 91.4572 85.56 84.04C85.56 76.6228 79.5471 70.61 72.13 70.61C64.7128 70.61 58.7 76.6228 58.7 84.04C58.7 91.4572 64.7128 97.47 72.13 97.47Z" fill="white"/>
<path d="M72.13 98.96C63.9 98.96 57.2 92.26 57.2 84.03C57.2 75.8 63.9 69.1 72.13 69.1C80.36 69.1 87.06 75.8 87.06 84.03C87.06 92.26 80.36 98.96 72.13 98.96ZM72.13 72.11C65.55 72.11 60.2 77.46 60.2 84.04C60.2 90.62 65.55 95.97 72.13 95.97C78.71 95.97 84.06 90.62 84.06 84.04C84.06 77.46 78.71 72.11 72.13 72.11Z" fill="#292B34"/>
<path d="M77.4 84.74C77.4 87.78 74.94 90.24 71.9 90.24C68.86 90.24 66.4 87.78 66.4 84.74C66.4 81.7 68.86 82.71 71.9 82.71C74.94 82.71 77.4 81.71 77.4 84.74Z" fill="#292B34"/>
<path d="M85.21 81.21H59.21V84.21H85.21V81.21Z" fill="#292B34"/>
<path d="M109.88 99.66H90.69C89.98 99.66 89.48 100.38 89.75 101.04C90.88 103.83 92.99 107.66 100.19 107.66C107.39 107.66 109.81 103.73 110.81 100.93C111.03 100.3 110.55 99.66 109.88 99.66Z" fill="#FDC507"/>
<path d="M100.19 109.16C91.42 109.16 89.2 103.67 88.36 101.6C88.05 100.83 88.14 99.96 88.61 99.27C89.08 98.57 89.86 98.16 90.7 98.16H109.89C110.7 98.16 111.46 98.55 111.93 99.21C112.39 99.86 112.5 100.68 112.24 101.43C110.41 106.56 106.36 109.16 100.21 109.16H100.19ZM91.43 101.16C92.66 103.84 94.72 106.16 100.19 106.16C105.98 106.16 108.1 103.49 109.11 101.16H91.44H91.43Z" fill="#292B34"/>
<path d="M100.21 88.66C94.49 88.66 90.34 94.52 88.69 98.38C88.42 99 88.9 99.66 89.58 99.66H110.79C111.48 99.66 111.96 98.97 111.68 98.34C109.93 94.48 105.92 88.66 100.22 88.66H100.21Z" fill="#FDC507"/>
<path d="M110.78 101.16H89.57C88.73 101.16 87.96 100.75 87.51 100.06C87.07 99.39 86.99 98.54 87.31 97.8C89.4 92.89 94.04 87.17 100.21 87.17C106.38 87.17 110.72 92.63 113.04 97.73C113.38 98.48 113.32 99.35 112.87 100.04C112.41 100.75 111.63 101.17 110.79 101.17L110.78 101.16ZM90.44 98.16H109.91C108.69 95.77 105.29 90.16 100.2 90.16C95.56 90.16 92.05 94.86 90.43 98.16H90.44Z" fill="#292B34"/>
<g opacity="0.24">
<path fill-rule="evenodd" clip-rule="evenodd" d="M116.23 135.86C143.16 132.89 162.99 122.04 162.99 101.71C162.99 77.47 134.78 66.71 99.99 66.71C65.2 66.71 36.99 77.47 36.99 101.71C36.99 121.68 56.15 132.51 82.36 135.7C76.89 142.41 72.96 151.06 71.42 156.86C84.78 159.35 108.1 161.61 128.46 157.12C126.41 151.37 122.02 142.65 116.23 135.86Z" fill="#1C1E24"/>
</g>
</g>
<defs>
<clipPath id="clip0_1_6">
<rect width="143.99" height="118.68" fill="white" transform="translate(28 41)"/>
</clipPath>
</defs>
</svg>
