<svg width="200" height="200" viewBox="0 0 200 200" fill="none" xmlns="http://www.w3.org/2000/svg">
<g clip-path="url(#clip0_1_4)">
<path d="M107.54 129.64C83.54 129.64 72.54 149.31 70.04 159.14C84.21 162.14 117.54 166.34 145.54 159.14C141.54 149.31 131.54 129.64 107.54 129.64Z" fill="#C6CCCC"/>
<path d="M145.04 160.64C144.45 160.64 143.89 160.29 143.65 159.71C140.78 152.64 132.03 131.14 107.54 131.14C84.73 131.14 73.99 149.7 71.49 159.51C71.29 160.31 70.47 160.8 69.67 160.59C68.87 160.39 68.38 159.57 68.59 158.77C71.28 148.18 82.89 128.14 107.54 128.14C125.13 128.14 138.21 138.38 146.43 158.57C146.74 159.34 146.37 160.21 145.61 160.53C145.42 160.61 145.23 160.64 145.05 160.64H145.04Z" fill="#292B34"/>
<path d="M173.9 90.64C175.05 107.05 168.15 119.4 156.09 128.05C143.96 136.75 126.58 141.73 106.9 143.11C87.22 144.49 69.32 141.97 56.09 135.04C42.95 128.15 34.4 116.89 33.25 100.47C32.1 84.06 39 71.71 51.06 63.06C63.19 54.36 80.57 49.38 100.25 48C119.93 46.62 137.83 49.14 151.06 56.07C164.2 62.96 172.75 74.22 173.9 90.63V90.64Z" fill="white"/>
<path d="M96.71 144.97C80.36 144.97 66.22 142.04 55.39 136.37C40.83 128.74 32.88 116.69 31.75 100.58C30.62 84.47 36.82 71.43 50.18 61.85C62.14 53.26 79.42 47.96 100.14 46.51C120.86 45.06 138.71 47.91 151.75 54.75C166.31 62.38 174.26 74.42 175.39 90.54C176.52 106.65 170.32 119.68 156.96 129.27C145 137.85 127.72 143.16 107 144.61C103.49 144.86 100.05 144.98 96.71 144.98V144.97ZM110.45 49.14C107.17 49.14 103.81 49.26 100.35 49.5C80.18 50.91 63.44 56.02 51.93 64.28C39.48 73.22 33.69 85.36 34.74 100.36C35.79 115.36 43.2 126.58 56.78 133.7C69.33 140.28 86.61 143 106.78 141.6C126.95 140.19 143.69 135.08 155.2 126.82C167.65 117.88 173.44 105.74 172.39 90.74C171.34 75.73 163.93 64.52 150.35 57.4C139.95 51.95 126.29 49.14 110.44 49.14H110.45Z" fill="#292B34"/>
<path fill-rule="evenodd" clip-rule="evenodd" d="M106.26 90.91C106.26 90.91 112.4 66.92 133.55 65.44C159.99 63.59 171.54 78.32 174.12 93.68L174.03 81.91C167.01 54.4 136.25 43.99 100.15 46.52C63.13 49.1 33.57 64.37 31.72 94L34.91 109.93C33.2 85.49 46.19 70.55 72.13 68.73C93.58 67.23 100.27 91.32 100.27 91.32L106.26 90.9V90.91Z" fill="#292B34"/>
<path d="M113.82 103.41L94.68 104.75C93.97 104.8 93.53 105.56 93.84 106.19C95.16 108.9 97.54 112.57 104.72 112.07C112 111.56 114.04 107.47 114.84 104.61C115.02 103.97 114.49 103.36 113.83 103.41H113.82Z" fill="#FDC507"/>
<path d="M103.46 113.61C95.8 113.61 93.42 108.74 92.49 106.85C92.13 106.11 92.16 105.23 92.57 104.51C92.99 103.78 93.74 103.31 94.57 103.25L113.71 101.91C114.51 101.85 115.3 102.19 115.81 102.82C116.31 103.43 116.48 104.25 116.27 105.01C114.8 110.26 110.95 113.13 104.81 113.56C104.34 113.59 103.89 113.61 103.45 113.61H103.46ZM95.52 106.19C96.93 108.78 99.16 110.95 104.61 110.57C110.39 110.17 112.32 107.36 113.15 104.96L95.52 106.19Z" fill="#292B34"/>
<path d="M103.33 92.11C97.4799 92.52 93.7099 98.95 92.4199 102.9C92.2399 103.45 92.6099 104.01 93.1799 104.11L104.06 106.04C104.22 106.07 104.39 106.06 104.54 106.01L115.01 102.6C115.57 102.42 115.86 101.79 115.58 101.26C113.64 97.53 109.16 91.71 103.32 92.12L103.33 92.11Z" fill="#FDC507"/>
<path d="M104.23 107.55C104.09 107.55 103.95 107.54 103.81 107.51L92.91 105.58C92.2 105.46 91.58 105.03 91.22 104.42C90.86 103.82 90.78 103.1 90.99 102.43C92.35 98.26 96.46 91.08 103.22 90.61C109.26 90.2 114.26 95.47 116.91 100.55C117.24 101.19 117.27 101.93 117 102.59C116.72 103.26 116.17 103.78 115.47 104.01L105 107.42C104.75 107.5 104.49 107.54 104.22 107.54L104.23 107.55ZM94.06 102.74L104.19 104.53L113.93 101.36C111.75 97.47 107.82 93.29 103.42 93.61C98.56 93.95 95.3 99.41 94.05 102.74H94.06Z" fill="#292B34"/>
<path fill-rule="evenodd" clip-rule="evenodd" d="M55.66 88.89C55.52 87.76 55.6 86.62 55.9 85.52C56.2 84.42 56.72 83.4 57.41 82.5C58.11 81.6 58.98 80.85 59.96 80.29C60.95 79.73 62.04 79.37 63.17 79.23C66.48 78.82 68.11 80.03 69.95 82.29C71.2 79.65 72.49 78.09 75.79 77.68C78.07 77.4 80.36 78.05 82.17 79.46C83.98 80.87 85.15 82.95 85.42 85.23C85.97 89.67 83.96 94.26 81.49 98.16C79.15 101.86 76.25 105.15 74.28 107.4L73.91 107.83C73.71 108.05 73.44 108.2 73.14 108.24C72.84 108.28 72.54 108.2 72.3 108.03L71.83 107.71C69.37 106.01 65.76 103.51 62.6 100.49C59.26 97.3 56.2 93.34 55.65 88.89H55.66Z" fill="#FF4588"/>
<path d="M73 109.74C72.45 109.74 71.91 109.57 71.45 109.25L70.99 108.93C68.54 107.24 64.84 104.68 61.58 101.57C57.11 97.3 54.69 93.21 54.18 89.07C54.01 87.74 54.11 86.41 54.47 85.12C54.83 83.83 55.42 82.64 56.25 81.58C57.07 80.52 58.08 79.65 59.25 78.99C60.42 78.33 61.68 77.91 63.01 77.74C66.04 77.37 67.97 78.17 69.67 79.74C70.94 77.81 72.62 76.56 75.64 76.19C78.33 75.86 80.99 76.61 83.13 78.28C85.26 79.95 86.62 82.36 86.94 85.05C87.45 89.19 86.09 93.74 82.78 98.96C80.38 102.75 77.41 106.13 75.44 108.37L75.06 108.81C74.61 109.32 74 109.64 73.34 109.72C73.23 109.73 73.12 109.74 73.01 109.74H73ZM64.38 80.65C64.07 80.65 63.73 80.67 63.36 80.72C62.43 80.84 61.53 81.13 60.71 81.6C59.89 82.07 59.18 82.68 58.6 83.43C58.02 84.17 57.6 85.01 57.35 85.92C57.1 86.83 57.03 87.77 57.15 88.7C57.56 92.08 59.75 95.68 63.64 99.4C66.73 102.35 70.32 104.83 72.69 106.47L72.95 106.65L73.16 106.41C75.08 104.22 77.96 100.95 80.24 97.36C83.12 92.81 84.37 88.8 83.95 85.41C83.72 83.51 82.77 81.82 81.26 80.64C79.76 79.46 77.88 78.94 75.99 79.17C73.37 79.49 72.43 80.59 71.32 82.93L70.3 85.08L68.8 83.24C67.39 81.52 66.32 80.65 64.38 80.65Z" fill="#292B34"/>
<path fill-rule="evenodd" clip-rule="evenodd" d="M119.2 82.65C119.16 81.51 119.34 80.38 119.74 79.32C120.14 78.25 120.74 77.28 121.51 76.45C122.28 75.62 123.21 74.95 124.25 74.47C125.28 74 126.4 73.73 127.54 73.69C130.87 73.57 132.39 74.91 134.03 77.33C135.51 74.81 136.92 73.36 140.25 73.25C142.54 73.17 144.77 74.01 146.45 75.58C148.13 77.15 149.11 79.32 149.19 81.61C149.35 86.08 146.95 90.48 144.14 94.15C141.49 97.63 138.31 100.66 136.15 102.72L135.74 103.11C135.52 103.32 135.24 103.44 134.94 103.45C134.64 103.46 134.35 103.36 134.12 103.17L133.69 102.81C131.39 100.9 128.01 98.1 125.12 94.82C122.07 91.35 119.37 87.14 119.21 82.66L119.2 82.65Z" fill="#FF4588"/>
<path d="M134.89 104.94C134.25 104.94 133.64 104.72 133.15 104.31L132.71 103.95C130.42 102.05 126.95 99.17 123.98 95.79C119.9 91.15 117.84 86.86 117.7 82.69C117.65 81.35 117.86 80.03 118.33 78.78C118.8 77.52 119.5 76.39 120.41 75.41C121.33 74.43 122.41 73.65 123.62 73.09C124.84 72.53 126.13 72.22 127.47 72.18C130.5 72.08 132.38 73.04 133.93 74.75C135.36 72.94 137.15 71.84 140.19 71.73C142.91 71.63 145.49 72.61 147.47 74.46C149.45 76.31 150.59 78.83 150.68 81.54C150.83 85.71 149.07 90.13 145.33 95.04C142.62 98.59 139.37 101.7 137.22 103.75L136.78 104.17C136.29 104.64 135.66 104.9 134.99 104.93C134.96 104.93 134.92 104.93 134.89 104.93V104.94ZM127.93 75.17C127.82 75.17 127.7 75.17 127.58 75.17C126.64 75.2 125.73 75.42 124.87 75.81C124.01 76.2 123.25 76.75 122.6 77.45C121.96 78.14 121.47 78.94 121.14 79.83C120.81 80.71 120.66 81.64 120.7 82.59C120.82 85.99 122.68 89.77 126.24 93.81C129.06 97.01 132.42 99.8 134.64 101.64L134.89 101.84L135.11 101.62C137.23 99.59 140.38 96.58 142.95 93.22C146.21 88.94 147.81 85.05 147.69 81.64C147.63 79.73 146.82 77.96 145.43 76.65C144.03 75.34 142.21 74.66 140.31 74.72C137.67 74.81 136.64 75.82 135.33 78.06L134.13 80.11L132.79 78.15C131.4 76.11 130.34 75.16 127.94 75.16L127.93 75.17Z" fill="#292B34"/>
<path d="M79.69 85.74C80.7946 85.74 81.69 84.8446 81.69 83.74C81.69 82.6354 80.7946 81.74 79.69 81.74C78.5854 81.74 77.69 82.6354 77.69 83.74C77.69 84.8446 78.5854 85.74 79.69 85.74Z" fill="#FFACC1"/>
<path d="M143.53 81.28C144.635 81.28 145.53 80.3846 145.53 79.28C145.53 78.1754 144.635 77.28 143.53 77.28C142.425 77.28 141.53 78.1754 141.53 79.28C141.53 80.3846 142.425 81.28 143.53 81.28Z" fill="#FFACC1"/>
<path d="M53.9914 117.62C59.5008 117.234 63.7797 114.242 63.5485 110.937C63.3174 107.631 58.6637 105.264 53.1544 105.649C47.645 106.034 43.3661 109.026 43.5972 112.332C43.8284 115.638 48.482 118.005 53.9914 117.62Z" fill="#FFACC1"/>
<path d="M155.738 110.509C161.247 110.124 165.526 107.132 165.295 103.826C165.064 100.521 160.41 98.1533 154.901 98.5385C149.391 98.9238 145.112 101.916 145.343 105.221C145.575 108.527 150.228 110.895 155.738 110.509Z" fill="#FFACC1"/>
<path d="M142.53 133.65C149.46 136.12 146.28 150.95 145.17 159.15C139.54 160.64 130.96 161.98 126.54 161.64C134.04 148.14 135.6 131.17 142.53 133.65Z" fill="#C6CCCC"/>
<path d="M126.54 163.14C126.29 163.14 126.04 163.08 125.81 162.95C125.09 162.55 124.82 161.63 125.23 160.91C127.93 156.05 129.86 150.7 131.56 145.97C134.61 137.49 137.25 130.16 143.04 132.23C150.33 134.83 148.47 147.24 147.11 156.3C146.95 157.38 146.79 158.41 146.67 159.35C146.56 160.17 145.8 160.75 144.98 160.64C144.16 160.53 143.58 159.77 143.69 158.95C143.82 158 143.97 156.96 144.14 155.86C145.28 148.28 147 136.84 142.03 135.06C139.21 134.04 137.28 138.94 134.38 146.99C132.64 151.82 130.67 157.3 127.85 162.37C127.58 162.86 127.06 163.14 126.54 163.14Z" fill="#292B34"/>
<path d="M137.83 130.71C131.72 126.62 110.05 140.64 101.05 144.64C101.05 144.64 112.62 152.01 115.38 156.83C117.67 160.84 127.05 161.14 127.05 161.14C134.82 149.62 143.94 134.81 137.83 130.71Z" fill="#C6CCCC"/>
<path d="M126.54 163.14C126.25 163.14 125.96 163.06 125.7 162.88C125.01 162.42 124.83 161.48 125.3 160.8C129.51 154.56 139.36 139.95 138.17 133.84C138 132.98 137.63 132.38 137 131.96C133.48 129.61 119.7 136.25 111.46 140.21C106.96 142.38 103.41 144.09 101.41 144.59C100.61 144.79 99.79 144.3 99.59 143.5C99.39 142.7 99.88 141.88 100.68 141.68C102.38 141.26 105.98 139.52 110.15 137.51C123.51 131.08 134.08 126.4 138.66 129.47C139.96 130.34 140.79 131.62 141.11 133.26C142.37 139.71 135.45 151.11 127.79 162.48C127.5 162.91 127.03 163.14 126.55 163.14H126.54Z" fill="#292B34"/>
<path d="M37.5 41.79C37.34 41.12 36.74 40.64 36.04 40.64C35.34 40.64 34.74 41.12 34.58 41.79L33.55 46.09C33.04 48.23 31.48 49.96 29.42 50.7L26.54 51.73C25.94 51.94 25.54 52.51 25.54 53.14C25.54 53.77 25.94 54.34 26.54 54.55L29.42 55.58C31.49 56.32 33.04 58.05 33.55 60.19L34.58 64.49C34.74 65.16 35.34 65.64 36.04 65.64C36.74 65.64 37.34 65.16 37.5 64.49L38.53 60.19C39.04 58.05 40.6 56.32 42.66 55.58L45.54 54.55C46.14 54.34 46.54 53.77 46.54 53.14C46.54 52.51 46.14 51.94 45.54 51.73L42.66 50.7C40.59 49.96 39.04 48.23 38.53 46.09L37.5 41.79Z" fill="#FDF52F"/>
<path d="M36.04 67.14C34.65 67.14 33.45 66.19 33.12 64.84L32.09 60.54C31.7 58.89 30.51 57.57 28.91 57L26.03 55.97C24.84 55.54 24.04 54.41 24.04 53.15C24.04 51.89 24.84 50.75 26.03 50.32L28.91 49.29C30.51 48.72 31.7 47.39 32.09 45.75L33.12 41.45C33.44 40.09 34.64 39.15 36.04 39.15C37.44 39.15 38.63 40.1 38.96 41.45L39.99 45.75C40.38 47.4 41.57 48.72 43.17 49.29L46.05 50.32C47.24 50.75 48.04 51.88 48.04 53.15C48.04 54.42 47.24 55.55 46.05 55.97L43.17 57C41.57 57.57 40.38 58.9 39.99 60.54L38.96 64.84C38.64 66.2 37.44 67.14 36.04 67.14ZM36.04 42.14L35.01 46.44C34.38 49.08 32.48 51.2 29.92 52.11L27.04 53.14L29.92 54.17C32.47 55.08 34.38 57.2 35.01 59.84L36.04 64.14L37.07 59.84C37.7 57.2 39.6 55.08 42.16 54.17L45.04 53.14L42.16 52.11C39.61 51.2 37.7 49.08 37.07 46.44L36.04 42.14Z" fill="#292B34"/>
<path d="M165.5 131.79C165.34 131.11 164.74 130.64 164.04 130.64C163.34 130.64 162.74 131.12 162.58 131.79L161.55 136.09C161.04 138.22 159.48 139.96 157.42 140.7L154.54 141.73C153.94 141.94 153.54 142.51 153.54 143.14C153.54 143.77 153.94 144.34 154.54 144.55L157.42 145.58C159.49 146.32 161.04 148.05 161.55 150.19L162.58 154.49C162.74 155.17 163.34 155.64 164.04 155.64C164.74 155.64 165.34 155.16 165.5 154.49L166.53 150.19C167.04 148.05 168.6 146.32 170.66 145.58L173.54 144.55C174.14 144.34 174.53 143.77 174.53 143.14C174.53 142.51 174.13 141.94 173.54 141.73L170.66 140.7C168.59 139.96 167.04 138.23 166.53 136.09L165.5 131.79Z" fill="#FDF52F"/>
<path d="M164.04 157.14C162.65 157.14 161.45 156.19 161.12 154.84L160.09 150.54C159.7 148.89 158.51 147.57 156.91 147L154.03 145.97C152.84 145.54 152.04 144.41 152.04 143.14C152.04 141.87 152.84 140.74 154.03 140.31L156.91 139.28C158.51 138.71 159.7 137.38 160.09 135.74L161.12 131.44C161.44 130.08 162.64 129.14 164.04 129.14C165.44 129.14 166.63 130.09 166.96 131.44L167.99 135.74C168.38 137.39 169.57 138.71 171.17 139.28L174.05 140.31C175.24 140.73 176.04 141.87 176.04 143.13C176.04 144.39 175.24 145.53 174.05 145.96L171.16 146.99C169.56 147.56 168.37 148.89 167.98 150.53L166.95 154.83C166.62 156.19 165.42 157.13 164.03 157.13L164.04 157.14ZM164.04 132.14L163.01 136.44C162.38 139.08 160.48 141.2 157.92 142.11L155.04 143.14L157.92 144.17C160.48 145.08 162.38 147.2 163.01 149.84L164.04 154.14L165.07 149.84C165.7 147.2 167.6 145.08 170.16 144.17L173.04 143.14L170.16 142.11C167.61 141.2 165.7 139.08 165.07 136.44L164.04 132.14Z" fill="#292B34"/>
<path d="M55.5 122.77C55.33 122.1 54.73 121.63 54.04 121.63C53.35 121.63 52.75 122.1 52.59 122.77L50.93 129.38C50.39 131.52 48.81 133.24 46.72 133.95L41.55 135.71C40.94 135.92 40.53 136.49 40.53 137.13C40.53 137.77 40.94 138.34 41.55 138.55L46.72 140.31C48.81 141.02 50.39 142.74 50.93 144.88L52.59 151.49C52.76 152.16 53.36 152.62 54.04 152.62C54.72 152.62 55.33 152.15 55.5 151.49L57.16 144.88C57.7 142.74 59.28 141.02 61.37 140.31L66.54 138.55C67.15 138.34 67.56 137.77 67.56 137.13C67.56 136.49 67.15 135.92 66.54 135.71L61.37 133.95C59.28 133.24 57.7 131.52 57.16 129.38L55.5 122.77Z" fill="#FDF52F"/>
<path d="M54.04 154.14C52.66 154.14 51.47 153.21 51.13 151.87L49.47 145.26C49.06 143.61 47.85 142.29 46.23 141.74L41.06 139.98C39.85 139.57 39.03 138.42 39.03 137.14C39.03 135.86 39.85 134.72 41.06 134.3L46.23 132.54C47.84 131.99 49.05 130.68 49.47 129.02L51.13 122.41C51.47 121.07 52.66 120.14 54.04 120.14C55.42 120.14 56.61 121.07 56.95 122.41L58.61 129.02C59.02 130.67 60.23 131.99 61.85 132.54L67.02 134.3C68.23 134.71 69.05 135.85 69.05 137.14C69.05 138.43 68.23 139.57 67.02 139.98L61.85 141.74C60.24 142.29 59.03 143.6 58.61 145.26L56.95 151.87C56.61 153.21 55.42 154.14 54.04 154.14ZM54.04 123.14L52.38 129.75C51.72 132.39 49.78 134.5 47.2 135.38L42.03 137.14L47.2 138.9C49.78 139.78 51.71 141.88 52.38 144.53L54.04 151.14L55.7 144.53C56.36 141.89 58.3 139.78 60.88 138.9L66.05 137.14L60.88 135.38C58.3 134.5 56.37 132.4 55.7 129.75L54.04 123.14Z" fill="#292B34"/>
<path d="M161.5 38.77C161.33 38.1 160.73 37.63 160.04 37.63C159.35 37.63 158.75 38.1 158.58 38.77L156.92 45.38C156.38 47.52 154.8 49.24 152.71 49.95L147.54 51.71C146.93 51.92 146.53 52.49 146.53 53.13C146.53 53.77 146.94 54.34 147.54 54.55L152.71 56.31C154.8 57.02 156.38 58.74 156.92 60.88L158.58 67.49C158.75 68.16 159.35 68.63 160.04 68.63C160.73 68.63 161.33 68.16 161.5 67.49L163.16 60.88C163.7 58.74 165.28 57.02 167.37 56.31L172.54 54.55C173.15 54.34 173.56 53.77 173.56 53.13C173.56 52.49 173.15 51.92 172.54 51.71L167.37 49.95C165.28 49.24 163.7 47.52 163.16 45.38L161.5 38.77Z" fill="#FDF52F"/>
<path d="M160.04 70.14C158.66 70.14 157.46 69.21 157.13 67.87L155.47 61.26C155.05 59.61 153.85 58.29 152.23 57.74L147.06 55.98C145.85 55.57 145.03 54.42 145.03 53.14C145.03 51.86 145.85 50.72 147.06 50.3L152.23 48.54C153.84 47.99 155.05 46.68 155.47 45.02L157.13 38.41C157.46 37.07 158.66 36.14 160.04 36.14C161.42 36.14 162.61 37.07 162.95 38.41L164.61 45.02C165.02 46.67 166.23 47.99 167.84 48.54L173.01 50.3C174.23 50.72 175.04 51.86 175.04 53.14C175.04 54.42 174.22 55.56 173.01 55.98L167.84 57.74C166.23 58.29 165.02 59.6 164.61 61.26L162.95 67.87C162.61 69.21 161.42 70.14 160.04 70.14ZM160.04 39.14L158.38 45.75C157.72 48.39 155.78 50.5 153.2 51.38L148.03 53.14L153.2 54.9C155.78 55.78 157.71 57.88 158.38 60.53L160.04 67.14L161.7 60.53C162.36 57.89 164.3 55.78 166.88 54.9L172.05 53.14L166.88 51.38C164.3 50.5 162.37 48.4 161.7 45.75L160.04 39.14Z" fill="#292B34"/>
</g>
<defs>
<clipPath id="clip0_1_4">
<rect width="152" height="127" fill="white" transform="translate(24.04 36.14)"/>
</clipPath>
</defs>
</svg>
